<?xml version="1.0" encoding="UTF-8"?>
<svg width="16px" height="16px" viewBox="0 0 16 16" version="1.1" xmlns="http://www.w3.org/2000/svg" xmlns:xlink="http://www.w3.org/1999/xlink">
    <!-- Generator: sketchtool 53.2 (72643) - https://sketchapp.com -->
    <title>E81C8649-FBD5-4BC0-9C98-3688CBE2EB7F</title>
    <desc>Created with sketchtool.</desc>
    <g id="Symbols" stroke="none" stroke-width="1" fill="none" fill-rule="evenodd">
        <g id="Info" fill="#7AAC39">
            <g id="i">
                <path d="M7.03025842,4.36415258 C7.03025842,3.82912274 7.46518047,3.39378007 8,3.39378007 C8.53460922,3.39378007 8.96953127,3.82912274 8.96953127,4.36415258 C8.96953127,4.89855149 8.53460922,5.33326323 8,5.33326323 C7.46518047,5.33326323 7.03025842,4.89855149 7.03025842,4.36415258 Z M8.72725361,11.878756 C8.72725361,12.280449 8.401693,12.6060096 8,12.6060096 C7.598307,12.6060096 7.27274639,12.280449 7.27274639,11.878756 L7.27274639,7.51523436 C7.27274639,7.11333105 7.598307,6.78777045 8,6.78777045 C8.401693,6.78777045 8.72725361,7.11333105 8.72725361,7.51523436 L8.72725361,11.878756 Z M0,8 C0,12.4110518 3.58873787,16 8,16 C12.4112621,16 16,12.4110518 16,8 C16,3.58873787 12.4112621,0 8,0 C3.58873787,0 0,3.58873787 0,8 Z" id="Info"></path>
            </g>
        </g>
    </g>
</svg>