<svg width="358" height="111" viewBox="0 0 358 111" fill="none" xmlns="http://www.w3.org/2000/svg">
<g filter="url(#filter0_dd_1605_9844)">
<path d="M4 28.6C4 19.6392 4 15.1587 5.7439 11.7362C7.27787 8.72556 9.72556 6.27787 12.7362 4.7439C16.1587 3 20.6392 3 29.6 3H328.4C337.361 3 341.841 3 345.264 4.7439C348.274 6.27787 350.722 8.72556 352.256 11.7362C354 15.1587 354 19.6392 354 28.6V80.4C354 89.3608 354 93.8413 352.256 97.2638C350.722 100.274 348.274 102.722 345.264 104.256C341.841 106 337.361 106 328.4 106H29.6C20.6392 106 16.1587 106 12.7362 104.256C9.72556 102.722 7.27787 100.274 5.7439 97.2638C4 93.8413 4 89.3608 4 80.4V28.6Z" fill="white"/>
<path d="M35.6953 37H33.9531V32.0547H28.1641V37H26.4141V25.7266H28.1641V30.4609H33.9531V25.7266H35.6953V37ZM43.3125 30.3594C42.9375 29.9583 42.4401 29.7578 41.8203 29.7578C41.2005 29.7578 40.6901 29.9583 40.2891 30.3594C39.888 30.7604 39.6641 31.2943 39.6172 31.9609H43.9141C43.8932 31.2891 43.6927 30.7552 43.3125 30.3594ZM43.9062 34.7031H45.5234C45.3307 35.4688 44.9089 36.0703 44.2578 36.5078C43.612 36.9453 42.8047 37.1641 41.8359 37.1641C40.6172 37.1641 39.6562 36.7734 38.9531 35.9922C38.2552 35.2057 37.9062 34.1328 37.9062 32.7734C37.9062 31.4141 38.2604 30.3333 38.9688 29.5312C39.6771 28.7292 40.6302 28.3281 41.8281 28.3281C43.0104 28.3281 43.9375 28.7083 44.6094 29.4688C45.2865 30.2292 45.625 31.2786 45.625 32.6172V33.2031H39.6172V33.2969C39.6432 34.0469 39.8594 34.6406 40.2656 35.0781C40.6719 35.5156 41.2109 35.7344 41.8828 35.7344C42.9089 35.7344 43.5833 35.3906 43.9062 34.7031ZM50.4219 35.7266C51.0521 35.7266 51.5755 35.5495 51.9922 35.1953C52.4141 34.8411 52.625 34.3984 52.625 33.8672V33.1562L50.5469 33.2891C49.9635 33.3255 49.5339 33.4453 49.2578 33.6484C48.9818 33.8516 48.8438 34.1406 48.8438 34.5156C48.8438 34.8906 48.9896 35.1875 49.2812 35.4062C49.5729 35.6198 49.9531 35.7266 50.4219 35.7266ZM49.9922 37.1406C49.1589 37.1406 48.4766 36.9089 47.9453 36.4453C47.4193 35.9766 47.1562 35.3594 47.1562 34.5938C47.1562 33.8333 47.4297 33.237 47.9766 32.8047C48.5234 32.3672 49.3047 32.1172 50.3203 32.0547L52.625 31.9219V31.1875C52.625 30.7344 52.4766 30.388 52.1797 30.1484C51.8828 29.9036 51.4505 29.7812 50.8828 29.7812C50.4141 29.7812 50.0234 29.8646 49.7109 30.0312C49.4036 30.1927 49.2031 30.4245 49.1094 30.7266H47.4844C47.5677 29.9974 47.9245 29.4167 48.5547 28.9844C49.1901 28.5469 49.9922 28.3281 50.9609 28.3281C52.0234 28.3281 52.8438 28.5807 53.4219 29.0859C54.0052 29.5859 54.2969 30.2865 54.2969 31.1875V37H52.6797V35.8047H52.5469C52.2917 36.2318 51.9401 36.5625 51.4922 36.7969C51.0495 37.026 50.5495 37.1406 49.9922 37.1406ZM59.7969 37.1406C58.7135 37.1406 57.8542 36.7448 57.2188 35.9531C56.5833 35.1615 56.2656 34.0911 56.2656 32.7422C56.2656 31.3984 56.5833 30.3307 57.2188 29.5391C57.8594 28.7474 58.7188 28.3516 59.7969 28.3516C60.3802 28.3516 60.9036 28.4844 61.3672 28.75C61.8307 29.0104 62.1771 29.375 62.4062 29.8438H62.5312V25.1719H64.2109V37H62.6016V35.6562H62.4688C62.2135 36.1198 61.849 36.4844 61.375 36.75C60.9062 37.0104 60.3802 37.1406 59.7969 37.1406ZM60.2734 29.8594C59.5651 29.8594 59.0078 30.1172 58.6016 30.6328C58.2005 31.1432 58 31.8464 58 32.7422C58 33.6432 58.2005 34.3516 58.6016 34.8672C59.0078 35.3776 59.5651 35.6328 60.2734 35.6328C60.9818 35.6328 61.5391 35.375 61.9453 34.8594C62.3568 34.3438 62.5625 33.6406 62.5625 32.75C62.5625 31.8646 62.3568 31.1615 61.9453 30.6406C61.5339 30.1198 60.9766 29.8594 60.2734 29.8594ZM66.8125 37V25.1719H68.4922V37H66.8125ZM71.0469 37V28.4922H72.7188V37H71.0469ZM72.6562 26.7109C72.4531 26.9036 72.1953 27 71.8828 27C71.5703 27 71.3099 26.9036 71.1016 26.7109C70.8984 26.513 70.7969 26.2682 70.7969 25.9766C70.7969 25.6849 70.8984 25.4401 71.1016 25.2422C71.3099 25.0443 71.5703 24.9453 71.8828 24.9453C72.1953 24.9453 72.4531 25.0443 72.6562 25.2422C72.8646 25.4401 72.9688 25.6849 72.9688 25.9766C72.9688 26.2682 72.8646 26.513 72.6562 26.7109ZM75.1875 37V28.4922H76.8047V29.8438H76.9297C77.3724 28.8333 78.2188 28.3281 79.4688 28.3281C80.4167 28.3281 81.1432 28.6016 81.6484 29.1484C82.1589 29.6953 82.4141 30.4766 82.4141 31.4922V37H80.7344V31.9141C80.7344 30.5495 80.1224 29.8672 78.8984 29.8672C78.2786 29.8672 77.7839 30.0625 77.4141 30.4531C77.0495 30.8385 76.8672 31.362 76.8672 32.0234V37H75.1875ZM89.7656 30.3594C89.3906 29.9583 88.8932 29.7578 88.2734 29.7578C87.6536 29.7578 87.1432 29.9583 86.7422 30.3594C86.3411 30.7604 86.1172 31.2943 86.0703 31.9609H90.3672C90.3464 31.2891 90.1458 30.7552 89.7656 30.3594ZM90.3594 34.7031H91.9766C91.7839 35.4688 91.362 36.0703 90.7109 36.5078C90.0651 36.9453 89.2578 37.1641 88.2891 37.1641C87.0703 37.1641 86.1094 36.7734 85.4062 35.9922C84.7083 35.2057 84.3594 34.1328 84.3594 32.7734C84.3594 31.4141 84.7135 30.3333 85.4219 29.5312C86.1302 28.7292 87.0833 28.3281 88.2812 28.3281C89.4635 28.3281 90.3906 28.7083 91.0625 29.4688C91.7396 30.2292 92.0781 31.2786 92.0781 32.6172V33.2031H86.0703V33.2969C86.0964 34.0469 86.3125 34.6406 86.7188 35.0781C87.125 35.5156 87.6641 35.7344 88.3359 35.7344C89.362 35.7344 90.0365 35.3906 90.3594 34.7031Z" fill="#27272A"/>
<path d="M32.2461 61.8926V63H26.2578V53.1357H27.4883V61.8926H32.2461ZM35.1377 61.3525C35.516 61.8311 36.0537 62.0703 36.751 62.0703C37.4482 62.0703 37.986 61.8311 38.3643 61.3525C38.7425 60.8695 38.9316 60.1904 38.9316 59.3154C38.9316 58.4404 38.7425 57.7637 38.3643 57.2852C37.986 56.8021 37.4482 56.5605 36.751 56.5605C36.0537 56.5605 35.516 56.8021 35.1377 57.2852C34.7594 57.7637 34.5703 58.4404 34.5703 59.3154C34.5703 60.1904 34.7594 60.8695 35.1377 61.3525ZM39.2324 62.1113C38.6263 62.7904 37.7992 63.1299 36.751 63.1299C35.7028 63.1299 34.8734 62.7904 34.2627 62.1113C33.6566 61.4277 33.3535 60.4958 33.3535 59.3154C33.3535 58.1305 33.6566 57.1986 34.2627 56.5195C34.8688 55.8405 35.6982 55.501 36.751 55.501C37.8037 55.501 38.6331 55.8405 39.2393 56.5195C39.8454 57.1986 40.1484 58.1305 40.1484 59.3154C40.1484 60.4958 39.8431 61.4277 39.2324 62.1113ZM41.9941 63V55.6309H43.1152V56.7246H43.2246C43.334 56.3646 43.5801 56.0706 43.9629 55.8428C44.3457 55.6149 44.7809 55.501 45.2686 55.501C45.4919 55.501 45.6878 55.5124 45.8564 55.5352V56.7109C45.6969 56.6654 45.4463 56.6426 45.1045 56.6426C44.5439 56.6426 44.0814 56.8112 43.7168 57.1484C43.3522 57.4857 43.1699 57.9141 43.1699 58.4336V63H41.9941ZM50.0605 56.54C49.4727 56.54 48.9896 56.7383 48.6113 57.1348C48.2331 57.5312 48.0212 58.0553 47.9756 58.707H52.0361C52.0225 58.0553 51.8356 57.5312 51.4756 57.1348C51.1156 56.7383 50.6439 56.54 50.0605 56.54ZM52.002 61.0928H53.1777C53 61.7308 52.6377 62.2298 52.0908 62.5898C51.5485 62.9499 50.8763 63.1299 50.0742 63.1299C49.0534 63.1299 48.2445 62.7881 47.6475 62.1045C47.0505 61.4163 46.752 60.4889 46.752 59.3223C46.752 58.1602 47.0527 57.2327 47.6543 56.54C48.2559 55.8473 49.0625 55.501 50.0742 55.501C51.0677 55.501 51.8493 55.8314 52.4189 56.4922C52.9886 57.153 53.2734 58.0576 53.2734 59.2061V59.6572H47.9756V59.7119C48.0075 60.4411 48.2126 61.0199 48.5908 61.4482C48.9736 61.8766 49.4772 62.0908 50.1016 62.0908C51.054 62.0908 51.6875 61.7581 52.002 61.0928ZM55.1191 63V55.6309H56.2402V56.793H56.3496C56.5182 56.3828 56.7803 56.0661 57.1357 55.8428C57.4912 55.6149 57.915 55.501 58.4072 55.501C58.8903 55.501 59.305 55.6172 59.6514 55.8496C60.0023 56.082 60.2666 56.3965 60.4443 56.793H60.5537C60.7542 56.3965 61.055 56.082 61.4561 55.8496C61.8571 55.6172 62.3083 55.501 62.8096 55.501C63.5615 55.501 64.1403 55.7106 64.5459 56.1299C64.9515 56.5446 65.1543 57.137 65.1543 57.9072V63H63.9785V58.1807C63.9785 57.1006 63.4613 56.5605 62.4268 56.5605C61.9255 56.5605 61.5153 56.7246 61.1963 57.0527C60.8773 57.3809 60.7178 57.7842 60.7178 58.2627V63H59.542V57.9961C59.542 57.5586 59.4007 57.21 59.1182 56.9502C58.8402 56.6904 58.4688 56.5605 58.0039 56.5605C57.5254 56.5605 57.1198 56.7428 56.7871 57.1074C56.459 57.472 56.2949 57.9141 56.2949 58.4336V63H55.1191ZM71.2793 63V55.6309H72.4551V63H71.2793ZM72.4482 53.8945C72.2887 54.054 72.0951 54.1338 71.8672 54.1338C71.6393 54.1338 71.4456 54.054 71.2861 53.8945C71.1266 53.7305 71.0469 53.5368 71.0469 53.3135C71.0469 53.0902 71.1266 52.8988 71.2861 52.7393C71.4456 52.5752 71.6393 52.4932 71.8672 52.4932C72.0951 52.4932 72.2887 52.5752 72.4482 52.7393C72.6077 52.8988 72.6875 53.0902 72.6875 53.3135C72.6875 53.5368 72.6077 53.7305 72.4482 53.8945ZM78.2861 55.501C79.2249 55.501 79.9746 55.8473 80.5352 56.54C81.1003 57.2327 81.3828 58.1579 81.3828 59.3154C81.3828 60.4684 81.1003 61.3936 80.5352 62.0908C79.9701 62.7835 79.2204 63.1299 78.2861 63.1299C77.762 63.1299 77.2972 63.0228 76.8916 62.8086C76.486 62.5898 76.1829 62.2845 75.9824 61.8926H75.873V65.4609H74.6973V55.6309H75.8184V56.8613H75.9277C76.1647 56.4375 76.4906 56.1048 76.9053 55.8633C77.3245 55.6217 77.7848 55.501 78.2861 55.501ZM78.0059 62.0703C78.6803 62.0703 79.209 61.8265 79.5918 61.3389C79.9746 60.8512 80.166 60.1768 80.166 59.3154C80.166 58.4541 79.9746 57.7796 79.5918 57.292C79.2135 56.8044 78.6872 56.5605 78.0127 56.5605C77.3473 56.5605 76.8187 56.8089 76.4268 57.3057C76.0348 57.7979 75.8389 58.4678 75.8389 59.3154C75.8389 60.1585 76.0326 60.8285 76.4199 61.3252C76.8118 61.8219 77.3405 62.0703 78.0059 62.0703ZM83.0576 57.6475C83.0576 57.0368 83.3197 56.5264 83.8438 56.1162C84.3678 55.7061 85.0218 55.501 85.8057 55.501C86.5758 55.501 87.2116 55.6787 87.7129 56.0342C88.2142 56.3896 88.5036 56.8704 88.5811 57.4766H87.4189C87.3369 57.1758 87.1546 56.9388 86.8721 56.7656C86.5941 56.5879 86.2363 56.499 85.7988 56.499C85.3568 56.499 84.9854 56.6016 84.6846 56.8066C84.3883 57.0117 84.2402 57.276 84.2402 57.5996C84.2402 57.8503 84.3428 58.0599 84.5479 58.2285C84.7575 58.3926 85.0811 58.527 85.5186 58.6318L86.6533 58.9053C87.3551 59.0739 87.8724 59.3177 88.2051 59.6367C88.5423 59.9557 88.7109 60.3773 88.7109 60.9014C88.7109 61.5531 88.4307 62.0885 87.8701 62.5078C87.3096 62.9225 86.6055 63.1299 85.7578 63.1299C84.9375 63.1299 84.2653 62.9476 83.7412 62.583C83.2171 62.2184 82.9232 61.7308 82.8594 61.1201H84.0693C84.1696 61.4391 84.3678 61.6898 84.6641 61.8721C84.9603 62.0498 85.3385 62.1387 85.7988 62.1387C86.2956 62.1387 86.7035 62.0316 87.0225 61.8174C87.3415 61.6032 87.501 61.3275 87.501 60.9902C87.501 60.4889 87.1113 60.1426 86.332 59.9512L85.0674 59.6436C84.3701 59.4749 83.8597 59.2334 83.5361 58.9189C83.2171 58.5999 83.0576 58.1761 83.0576 57.6475ZM96.5176 55.6309V63H95.3965V61.8447H95.2871C95.1003 62.2594 94.8132 62.5785 94.4258 62.8018C94.0384 63.0205 93.5645 63.1299 93.0039 63.1299C92.1836 63.1299 91.5592 62.8952 91.1309 62.4258C90.7025 61.9564 90.4883 61.2819 90.4883 60.4023V55.6309H91.6641V60.1152C91.6641 60.7852 91.7962 61.2773 92.0605 61.5918C92.3249 61.9017 92.7487 62.0566 93.332 62.0566C93.9746 62.0566 94.4691 61.8766 94.8154 61.5166C95.1663 61.152 95.3418 60.6439 95.3418 59.9922V55.6309H96.5176ZM98.7324 63V55.6309H99.8535V56.793H99.9629C100.132 56.3828 100.394 56.0661 100.749 55.8428C101.104 55.6149 101.528 55.501 102.021 55.501C102.504 55.501 102.918 55.6172 103.265 55.8496C103.616 56.082 103.88 56.3965 104.058 56.793H104.167C104.368 56.3965 104.668 56.082 105.069 55.8496C105.47 55.6172 105.922 55.501 106.423 55.501C107.175 55.501 107.754 55.7106 108.159 56.1299C108.565 56.5446 108.768 57.137 108.768 57.9072V63H107.592V58.1807C107.592 57.1006 107.075 56.5605 106.04 56.5605C105.539 56.5605 105.129 56.7246 104.81 57.0527C104.491 57.3809 104.331 57.7842 104.331 58.2627V63H103.155V57.9961C103.155 57.5586 103.014 57.21 102.731 56.9502C102.453 56.6904 102.082 56.5605 101.617 56.5605C101.139 56.5605 100.733 56.7428 100.4 57.1074C100.072 57.472 99.9082 57.9141 99.9082 58.4336V63H98.7324ZM117.593 63.1299C116.649 63.1299 115.897 62.7835 115.337 62.0908C114.776 61.3981 114.496 60.473 114.496 59.3154C114.496 58.1624 114.776 57.2396 115.337 56.5469C115.902 55.8496 116.654 55.501 117.593 55.501C118.108 55.501 118.568 55.6172 118.974 55.8496C119.384 56.0775 119.694 56.3919 119.903 56.793H120.006V52.7051H121.182V63H120.061V61.8242H119.951C119.719 62.2344 119.395 62.5557 118.98 62.7881C118.566 63.016 118.103 63.1299 117.593 63.1299ZM117.866 56.5605C117.196 56.5605 116.67 56.8066 116.287 57.2988C115.904 57.7865 115.713 58.4587 115.713 59.3154C115.713 60.1768 115.902 60.8512 116.28 61.3389C116.663 61.8265 117.192 62.0703 117.866 62.0703C118.536 62.0703 119.065 61.8242 119.452 61.332C119.84 60.8398 120.033 60.1676 120.033 59.3154C120.033 58.4723 119.837 57.8024 119.445 57.3057C119.058 56.8089 118.532 56.5605 117.866 56.5605ZM124.88 61.3525C125.258 61.8311 125.796 62.0703 126.493 62.0703C127.19 62.0703 127.728 61.8311 128.106 61.3525C128.485 60.8695 128.674 60.1904 128.674 59.3154C128.674 58.4404 128.485 57.7637 128.106 57.2852C127.728 56.8021 127.19 56.5605 126.493 56.5605C125.796 56.5605 125.258 56.8021 124.88 57.2852C124.502 57.7637 124.312 58.4404 124.312 59.3154C124.312 60.1904 124.502 60.8695 124.88 61.3525ZM128.975 62.1113C128.368 62.7904 127.541 63.1299 126.493 63.1299C125.445 63.1299 124.616 62.7904 124.005 62.1113C123.399 61.4277 123.096 60.4958 123.096 59.3154C123.096 58.1305 123.399 57.1986 124.005 56.5195C124.611 55.8405 125.44 55.501 126.493 55.501C127.546 55.501 128.375 55.8405 128.981 56.5195C129.588 57.1986 129.891 58.1305 129.891 59.3154C129.891 60.4958 129.585 61.4277 128.975 62.1113ZM131.805 63V52.7051H132.98V63H131.805ZM136.679 61.3525C137.057 61.8311 137.595 62.0703 138.292 62.0703C138.989 62.0703 139.527 61.8311 139.905 61.3525C140.284 60.8695 140.473 60.1904 140.473 59.3154C140.473 58.4404 140.284 57.7637 139.905 57.2852C139.527 56.8021 138.989 56.5605 138.292 56.5605C137.595 56.5605 137.057 56.8021 136.679 57.2852C136.3 57.7637 136.111 58.4404 136.111 59.3154C136.111 60.1904 136.3 60.8695 136.679 61.3525ZM140.773 62.1113C140.167 62.7904 139.34 63.1299 138.292 63.1299C137.244 63.1299 136.414 62.7904 135.804 62.1113C135.198 61.4277 134.895 60.4958 134.895 59.3154C134.895 58.1305 135.198 57.1986 135.804 56.5195C136.41 55.8405 137.239 55.501 138.292 55.501C139.345 55.501 140.174 55.8405 140.78 56.5195C141.386 57.1986 141.689 58.1305 141.689 59.3154C141.689 60.4958 141.384 61.4277 140.773 62.1113ZM143.535 63V55.6309H144.656V56.7246H144.766C144.875 56.3646 145.121 56.0706 145.504 55.8428C145.887 55.6149 146.322 55.501 146.81 55.501C147.033 55.501 147.229 55.5124 147.397 55.5352V56.7109C147.238 56.6654 146.987 56.6426 146.646 56.6426C146.085 56.6426 145.622 56.8112 145.258 57.1484C144.893 57.4857 144.711 57.9141 144.711 58.4336V63H143.535Z" fill="#78716C"/>
<path d="M26.584 86.084C26.2 86.084 26.008 85.888 26.008 85.496V78.044C26.008 77.652 26.2 77.456 26.584 77.456C26.752 77.456 26.88 77.488 26.968 77.552C27.064 77.616 27.152 77.72 27.232 77.864L30.184 83.384L33.136 77.864C33.216 77.72 33.3 77.616 33.388 77.552C33.484 77.488 33.612 77.456 33.772 77.456C34.14 77.456 34.324 77.652 34.324 78.044V85.496C34.324 85.888 34.14 86.084 33.772 86.084C33.396 86.084 33.208 85.888 33.208 85.496V79.808L30.688 84.452C30.624 84.572 30.556 84.66 30.484 84.716C30.412 84.772 30.312 84.8 30.184 84.8C30.048 84.8 29.94 84.772 29.86 84.716C29.788 84.652 29.72 84.564 29.656 84.452L27.136 79.82V85.496C27.136 85.888 26.952 86.084 26.584 86.084ZM38.0599 86.108C37.6519 86.108 37.2879 86.028 36.9679 85.868C36.6479 85.708 36.3919 85.492 36.1999 85.22C36.0159 84.948 35.9239 84.64 35.9239 84.296C35.9239 83.864 36.0319 83.524 36.2479 83.276C36.4719 83.028 36.8359 82.848 37.3399 82.736C37.8519 82.624 38.5399 82.568 39.4039 82.568H39.8119V82.256C39.8119 81.8 39.7159 81.472 39.5239 81.272C39.3319 81.072 39.0159 80.972 38.5759 80.972C38.3199 80.972 38.0519 81.004 37.7719 81.068C37.4999 81.132 37.2159 81.24 36.9199 81.392C36.7519 81.472 36.6119 81.484 36.4999 81.428C36.3959 81.372 36.3239 81.284 36.2839 81.164C36.2439 81.044 36.2479 80.92 36.2959 80.792C36.3439 80.664 36.4439 80.568 36.5959 80.504C36.9479 80.344 37.2959 80.228 37.6399 80.156C37.9839 80.076 38.3079 80.036 38.6119 80.036C39.4119 80.036 40.0039 80.228 40.3879 80.612C40.7719 80.988 40.9639 81.58 40.9639 82.388V85.472C40.9639 85.88 40.7759 86.084 40.3999 86.084C40.0159 86.084 39.8239 85.88 39.8239 85.472V85.028C39.6799 85.364 39.4559 85.628 39.1519 85.82C38.8479 86.012 38.4839 86.108 38.0599 86.108ZM38.2999 85.244C38.7319 85.244 39.0919 85.092 39.3799 84.788C39.6679 84.484 39.8119 84.1 39.8119 83.636V83.312H39.4159C38.8319 83.312 38.3719 83.34 38.0359 83.396C37.7079 83.452 37.4719 83.548 37.3279 83.684C37.1919 83.812 37.1239 83.992 37.1239 84.224C37.1239 84.528 37.2279 84.776 37.4359 84.968C37.6439 85.152 37.9319 85.244 38.2999 85.244ZM39.1039 79.304C39.0239 79.432 38.9159 79.492 38.7799 79.484C38.6439 79.468 38.5319 79.408 38.4439 79.304C38.3639 79.2 38.3599 79.076 38.4319 78.932L39.4039 77.048C39.4839 76.888 39.5879 76.796 39.7159 76.772C39.8519 76.748 39.9799 76.772 40.0999 76.844C40.2279 76.908 40.3159 77.004 40.3639 77.132C40.4119 77.252 40.3879 77.38 40.2919 77.516L39.1039 79.304ZM44.6853 86.108C44.3333 86.108 43.9693 86.068 43.5933 85.988C43.2173 85.908 42.8773 85.772 42.5732 85.58C42.4373 85.5 42.3533 85.4 42.3213 85.28C42.2893 85.16 42.2973 85.048 42.3453 84.944C42.3933 84.84 42.4693 84.768 42.5732 84.728C42.6853 84.68 42.8093 84.692 42.9453 84.764C43.2573 84.932 43.5573 85.052 43.8453 85.124C44.1333 85.196 44.4173 85.232 44.6973 85.232C45.1213 85.232 45.4413 85.156 45.6573 85.004C45.8733 84.852 45.9813 84.648 45.9813 84.392C45.9813 84.184 45.9093 84.024 45.7653 83.912C45.6213 83.792 45.4053 83.7 45.1173 83.636L43.9773 83.408C42.9693 83.2 42.4653 82.68 42.4653 81.848C42.4653 81.296 42.6853 80.856 43.1253 80.528C43.5653 80.2 44.1413 80.036 44.8533 80.036C45.5733 80.036 46.1933 80.212 46.7133 80.564C46.8413 80.644 46.9173 80.744 46.9413 80.864C46.9653 80.976 46.9493 81.084 46.8933 81.188C46.8373 81.284 46.7533 81.352 46.6413 81.392C46.5373 81.432 46.4133 81.416 46.2693 81.344C46.0293 81.2 45.7893 81.096 45.5493 81.032C45.3093 80.96 45.0773 80.924 44.8533 80.924C44.4373 80.924 44.1213 81.004 43.9053 81.164C43.6893 81.316 43.5813 81.524 43.5813 81.788C43.5813 82.188 43.8453 82.444 44.3733 82.556L45.5133 82.784C46.0333 82.888 46.4253 83.064 46.6893 83.312C46.9613 83.56 47.0973 83.896 47.0973 84.32C47.0973 84.88 46.8773 85.32 46.4373 85.64C45.9973 85.952 45.4133 86.108 44.6853 86.108ZM52.2098 78.836C51.9698 78.836 51.7818 78.776 51.6458 78.656C51.5178 78.536 51.4538 78.368 51.4538 78.152C51.4538 77.696 51.7058 77.468 52.2098 77.468C52.7138 77.468 52.9658 77.696 52.9658 78.152C52.9658 78.608 52.7138 78.836 52.2098 78.836ZM52.2098 86.072C51.8098 86.072 51.6098 85.852 51.6098 85.412V80.732C51.6098 80.3 51.8098 80.084 52.2098 80.084C52.6178 80.084 52.8218 80.3 52.8218 80.732V85.412C52.8218 85.852 52.6178 86.072 52.2098 86.072ZM55.1278 86.084C54.7278 86.084 54.5278 85.88 54.5278 85.472V80.672C54.5278 80.264 54.7238 80.06 55.1158 80.06C55.5078 80.06 55.7038 80.264 55.7038 80.672V81.116C55.9038 80.764 56.1758 80.496 56.5198 80.312C56.8718 80.128 57.2638 80.036 57.6958 80.036C59.0798 80.036 59.7718 80.82 59.7718 82.388V85.472C59.7718 85.88 59.5718 86.084 59.1718 86.084C58.7638 86.084 58.5598 85.88 58.5598 85.472V82.46C58.5598 81.956 58.4598 81.588 58.2598 81.356C58.0678 81.124 57.7638 81.008 57.3478 81.008C56.8598 81.008 56.4678 81.164 56.1718 81.476C55.8838 81.78 55.7398 82.184 55.7398 82.688V85.472C55.7398 85.88 55.5358 86.084 55.1278 86.084ZM62.4018 86.084C61.9938 86.084 61.7898 85.88 61.7898 85.472V81.08H61.1178C60.7898 81.08 60.6258 80.924 60.6258 80.612C60.6258 80.3 60.7898 80.144 61.1178 80.144H61.7898V80.036C61.7898 79.244 61.9858 78.648 62.3778 78.248C62.7698 77.84 63.3418 77.6 64.0938 77.528L64.4658 77.504C64.6338 77.488 64.7578 77.524 64.8378 77.612C64.9258 77.692 64.9698 77.796 64.9698 77.924C64.9698 78.044 64.9378 78.152 64.8738 78.248C64.8098 78.344 64.7138 78.4 64.5858 78.416L64.3578 78.428C63.8858 78.46 63.5418 78.592 63.3258 78.824C63.1098 79.056 63.0018 79.404 63.0018 79.868V80.144H64.1658C64.5018 80.144 64.6698 80.3 64.6698 80.612C64.6698 80.924 64.5018 81.08 64.1658 81.08H63.0018V85.472C63.0018 85.88 62.8018 86.084 62.4018 86.084ZM67.9819 86.108C67.3899 86.108 66.8779 85.984 66.4459 85.736C66.0139 85.488 65.6779 85.14 65.4379 84.692C65.2059 84.236 65.0899 83.696 65.0899 83.072C65.0899 82.448 65.2059 81.912 65.4379 81.464C65.6779 81.008 66.0139 80.656 66.4459 80.408C66.8779 80.16 67.3899 80.036 67.9819 80.036C68.5579 80.036 69.0619 80.16 69.4939 80.408C69.9259 80.656 70.2619 81.008 70.5019 81.464C70.7419 81.912 70.8619 82.448 70.8619 83.072C70.8619 83.696 70.7419 84.236 70.5019 84.692C70.2619 85.14 69.9259 85.488 69.4939 85.736C69.0619 85.984 68.5579 86.108 67.9819 86.108ZM67.9819 85.172C68.4779 85.172 68.8779 84.992 69.1819 84.632C69.4859 84.272 69.6379 83.752 69.6379 83.072C69.6379 82.392 69.4859 81.876 69.1819 81.524C68.8779 81.164 68.4779 80.984 67.9819 80.984C67.4779 80.984 67.0739 81.164 66.7699 81.524C66.4659 81.876 66.3139 82.392 66.3139 83.072C66.3139 83.752 66.4659 84.272 66.7699 84.632C67.0739 84.992 67.4779 85.172 67.9819 85.172ZM72.8351 86.084C72.4271 86.084 72.2231 85.88 72.2231 85.472V80.672C72.2231 80.264 72.4191 80.06 72.8111 80.06C73.2031 80.06 73.3991 80.264 73.3991 80.672V81.188C73.5591 80.828 73.7991 80.552 74.1191 80.36C74.4471 80.168 74.8431 80.056 75.3071 80.024C75.6031 80 75.7631 80.16 75.7871 80.504C75.8191 80.856 75.6471 81.048 75.2711 81.08L75.0431 81.104C73.9791 81.208 73.4471 81.756 73.4471 82.748V85.472C73.4471 85.88 73.2431 86.084 72.8351 86.084ZM77.3237 86.084C76.9237 86.084 76.7237 85.88 76.7237 85.472V80.672C76.7237 80.264 76.9197 80.06 77.3117 80.06C77.7037 80.06 77.8997 80.264 77.8997 80.672V81.092C78.0757 80.756 78.3197 80.496 78.6317 80.312C78.9437 80.128 79.3077 80.036 79.7237 80.036C80.6197 80.036 81.1997 80.428 81.4637 81.212C81.6477 80.844 81.9117 80.556 82.2557 80.348C82.5997 80.14 82.9917 80.036 83.4317 80.036C84.7437 80.036 85.3997 80.82 85.3997 82.388V85.472C85.3997 85.88 85.1957 86.084 84.7877 86.084C84.3877 86.084 84.1877 85.88 84.1877 85.472V82.448C84.1877 81.952 84.0997 81.588 83.9237 81.356C83.7557 81.124 83.4757 81.008 83.0837 81.008C82.6437 81.008 82.2957 81.164 82.0397 81.476C81.7837 81.78 81.6557 82.196 81.6557 82.724V85.472C81.6557 85.88 81.4557 86.084 81.0557 86.084C80.6477 86.084 80.4437 85.88 80.4437 85.472V82.448C80.4437 81.952 80.3597 81.588 80.1917 81.356C80.0237 81.124 79.7437 81.008 79.3517 81.008C78.9117 81.008 78.5637 81.164 78.3077 81.476C78.0597 81.78 77.9357 82.196 77.9357 82.724V85.472C77.9357 85.88 77.7317 86.084 77.3237 86.084ZM88.9662 86.108C88.5582 86.108 88.1942 86.028 87.8742 85.868C87.5542 85.708 87.2982 85.492 87.1062 85.22C86.9222 84.948 86.8302 84.64 86.8302 84.296C86.8302 83.864 86.9382 83.524 87.1542 83.276C87.3782 83.028 87.7422 82.848 88.2462 82.736C88.7582 82.624 89.4462 82.568 90.3102 82.568H90.7182V82.256C90.7182 81.8 90.6222 81.472 90.4302 81.272C90.2382 81.072 89.9222 80.972 89.4822 80.972C89.2262 80.972 88.9582 81.004 88.6782 81.068C88.4062 81.132 88.1222 81.24 87.8262 81.392C87.6582 81.472 87.5182 81.484 87.4062 81.428C87.3022 81.372 87.2302 81.284 87.1902 81.164C87.1502 81.044 87.1542 80.92 87.2022 80.792C87.2502 80.664 87.3502 80.568 87.5022 80.504C87.8542 80.344 88.2022 80.228 88.5462 80.156C88.8902 80.076 89.2142 80.036 89.5182 80.036C90.3182 80.036 90.9102 80.228 91.2942 80.612C91.6782 80.988 91.8702 81.58 91.8702 82.388V85.472C91.8702 85.88 91.6822 86.084 91.3062 86.084C90.9222 86.084 90.7302 85.88 90.7302 85.472V85.028C90.5862 85.364 90.3622 85.628 90.0582 85.82C89.7542 86.012 89.3902 86.108 88.9662 86.108ZM89.2062 85.244C89.6382 85.244 89.9982 85.092 90.2862 84.788C90.5742 84.484 90.7182 84.1 90.7182 83.636V83.312H90.3222C89.7382 83.312 89.2782 83.34 88.9422 83.396C88.6142 83.452 88.3782 83.548 88.2342 83.684C88.0982 83.812 88.0302 83.992 88.0302 84.224C88.0302 84.528 88.1342 84.776 88.3422 84.968C88.5502 85.152 88.8382 85.244 89.2062 85.244ZM96.1195 86.108C95.5195 86.108 94.9995 85.984 94.5595 85.736C94.1275 85.48 93.7915 85.124 93.5515 84.668C93.3115 84.204 93.1915 83.66 93.1915 83.036C93.1915 82.108 93.4555 81.376 93.9835 80.84C94.5115 80.304 95.2235 80.036 96.1195 80.036C96.3995 80.036 96.6915 80.08 96.9955 80.168C97.3075 80.248 97.5955 80.384 97.8595 80.576C97.9875 80.656 98.0595 80.76 98.0755 80.888C98.0995 81.008 98.0795 81.124 98.0155 81.236C97.9595 81.34 97.8755 81.412 97.7635 81.452C97.6515 81.484 97.5235 81.46 97.3795 81.38C97.1875 81.244 96.9915 81.148 96.7915 81.092C96.5915 81.028 96.3995 80.996 96.2155 80.996C95.6475 80.996 95.2075 81.176 94.8955 81.536C94.5915 81.888 94.4395 82.392 94.4395 83.048C94.4395 83.704 94.5915 84.22 94.8955 84.596C95.2075 84.964 95.6475 85.148 96.2155 85.148C96.3995 85.148 96.5875 85.12 96.7795 85.064C96.9795 85.008 97.1795 84.912 97.3795 84.776C97.5235 84.696 97.6475 84.676 97.7515 84.716C97.8635 84.756 97.9435 84.832 97.9915 84.944C98.0475 85.048 98.0635 85.164 98.0395 85.292C98.0235 85.412 97.9515 85.512 97.8235 85.592C97.5675 85.776 97.2875 85.908 96.9835 85.988C96.6875 86.068 96.3995 86.108 96.1195 86.108ZM99.7411 78.836C99.5011 78.836 99.3131 78.776 99.1771 78.656C99.0491 78.536 98.9851 78.368 98.9851 78.152C98.9851 77.696 99.2371 77.468 99.7411 77.468C100.245 77.468 100.497 77.696 100.497 78.152C100.497 78.608 100.245 78.836 99.7411 78.836ZM99.7411 86.072C99.3411 86.072 99.1411 85.852 99.1411 85.412V80.732C99.1411 80.3 99.3411 80.084 99.7411 80.084C100.149 80.084 100.353 80.3 100.353 80.732V85.412C100.353 85.852 100.149 86.072 99.7411 86.072ZM104.603 86.108C104.011 86.108 103.499 85.984 103.067 85.736C102.635 85.488 102.299 85.14 102.059 84.692C101.827 84.236 101.711 83.696 101.711 83.072C101.711 82.448 101.827 81.912 102.059 81.464C102.299 81.008 102.635 80.656 103.067 80.408C103.499 80.16 104.011 80.036 104.603 80.036C105.179 80.036 105.683 80.16 106.115 80.408C106.547 80.656 106.883 81.008 107.123 81.464C107.363 81.912 107.483 82.448 107.483 83.072C107.483 83.696 107.363 84.236 107.123 84.692C106.883 85.14 106.547 85.488 106.115 85.736C105.683 85.984 105.179 86.108 104.603 86.108ZM104.603 85.172C105.099 85.172 105.499 84.992 105.803 84.632C106.107 84.272 106.259 83.752 106.259 83.072C106.259 82.392 106.107 81.876 105.803 81.524C105.499 81.164 105.099 80.984 104.603 80.984C104.099 80.984 103.695 81.164 103.391 81.524C103.087 81.876 102.935 82.392 102.935 83.072C102.935 83.752 103.087 84.272 103.391 84.632C103.695 84.992 104.099 85.172 104.603 85.172ZM105.071 79.304C104.991 79.432 104.883 79.492 104.747 79.484C104.611 79.468 104.499 79.408 104.411 79.304C104.331 79.2 104.327 79.076 104.399 78.932L105.371 77.048C105.451 76.888 105.555 76.796 105.683 76.772C105.819 76.748 105.947 76.772 106.067 76.844C106.195 76.908 106.283 77.004 106.331 77.132C106.379 77.252 106.355 77.38 106.259 77.516L105.071 79.304ZM109.444 86.084C109.044 86.084 108.844 85.88 108.844 85.472V80.672C108.844 80.264 109.04 80.06 109.432 80.06C109.824 80.06 110.02 80.264 110.02 80.672V81.116C110.22 80.764 110.492 80.496 110.836 80.312C111.188 80.128 111.58 80.036 112.012 80.036C113.396 80.036 114.088 80.82 114.088 82.388V85.472C114.088 85.88 113.888 86.084 113.488 86.084C113.08 86.084 112.876 85.88 112.876 85.472V82.46C112.876 81.956 112.776 81.588 112.576 81.356C112.384 81.124 112.08 81.008 111.664 81.008C111.176 81.008 110.784 81.164 110.488 81.476C110.2 81.78 110.056 82.184 110.056 82.688V85.472C110.056 85.88 109.852 86.084 109.444 86.084Z" fill="#0077E6"/>
<path d="M25 87.236H114.904V87.704H25V87.236Z" fill="#0077E6"/>
<rect x="285" y="30.5" width="48" height="48" rx="24" fill="#E2E8F0"/>
<path d="M315.92 48.01C315.72 47.42 315.16 47 314.5 47H303.5C302.84 47 302.29 47.42 302.08 48.01L300.11 53.68C300.04 53.89 300 54.11 300 54.34V61.5C300 62.33 300.67 63 301.5 63C302.33 63 303 62.33 303 61.5V61H315V61.5C315 62.32 315.67 63 316.5 63C317.32 63 318 62.33 318 61.5V54.34C318 54.12 317.96 53.89 317.89 53.68L315.92 48.01ZM303.5 58C302.67 58 302 57.33 302 56.5C302 55.67 302.67 55 303.5 55C304.33 55 305 55.67 305 56.5C305 57.33 304.33 58 303.5 58ZM314.5 58C313.67 58 313 57.33 313 56.5C313 55.67 313.67 55 314.5 55C315.33 55 316 55.67 316 56.5C316 57.33 315.33 58 314.5 58ZM302 53L303.27 49.18C303.41 48.78 303.79 48.5 304.22 48.5H313.78C314.21 48.5 314.59 48.78 314.73 49.18L316 53H302Z" fill="#27272A"/>
</g>
<defs>
<filter id="filter0_dd_1605_9844" x="0" y="0" width="358" height="111" filterUnits="userSpaceOnUse" color-interpolation-filters="sRGB">
<feFlood flood-opacity="0" result="BackgroundImageFix"/>
<feColorMatrix in="SourceAlpha" type="matrix" values="0 0 0 0 0 0 0 0 0 0 0 0 0 0 0 0 0 0 127 0" result="hardAlpha"/>
<feOffset dy="1"/>
<feGaussianBlur stdDeviation="2"/>
<feColorMatrix type="matrix" values="0 0 0 0 0.0562384 0 0 0 0 0.121895 0 0 0 0 0.209437 0 0 0 0.06 0"/>
<feBlend mode="normal" in2="BackgroundImageFix" result="effect1_dropShadow_1605_9844"/>
<feColorMatrix in="SourceAlpha" type="matrix" values="0 0 0 0 0 0 0 0 0 0 0 0 0 0 0 0 0 0 127 0" result="hardAlpha"/>
<feOffset/>
<feGaussianBlur stdDeviation="1"/>
<feColorMatrix type="matrix" values="0 0 0 0 0.0562384 0 0 0 0 0.121895 0 0 0 0 0.209437 0 0 0 0.12 0"/>
<feBlend mode="normal" in2="effect1_dropShadow_1605_9844" result="effect2_dropShadow_1605_9844"/>
<feBlend mode="normal" in="SourceGraphic" in2="effect2_dropShadow_1605_9844" result="shape"/>
</filter>
</defs>
</svg>
