<?xml version="1.0" encoding="UTF-8"?>
<svg width="261px" height="39px" viewBox="0 0 261 39" version="1.1" xmlns="http://www.w3.org/2000/svg" xmlns:xlink="http://www.w3.org/1999/xlink">
    <!-- Generator: sketchtool 53.2 (72643) - https://sketchapp.com -->
    <title>928B4AD3-12BC-4429-9BD5-BC9E45AC607F</title>
    <desc>Created with sketchtool.</desc>
    <defs>
        <polygon id="path-1" points="0.156774658 0.377391781 16.867874 0.377391781 16.867874 17.630137 0.156774658 17.630137"></polygon>
        <polygon id="path-3" points="0 0.0298108856 17.2524514 0.0298108856 17.2524514 16.7405096 0 16.7405096"></polygon>
        <polygon id="path-5" points="0 38.7915904 260.393384 38.7915904 260.393384 -5.34246575e-05 0 -5.34246575e-05"></polygon>
    </defs>
    <g id="Symbols" stroke="none" stroke-width="1" fill="none" fill-rule="evenodd">
        <g id="Header-Inicio" transform="translate(-165.000000, 0.000000)">
            <g id="Logo">
                <g transform="translate(165.000000, 0.000000)">
                    <path d="M19.4778288,16.7058904 C19.4842397,16.7123014 19.4917192,16.7165753 19.4981301,16.7224521 C19.5798699,16.8020548 19.6674863,16.8747123 19.7631164,16.9382877 C19.8095959,16.969274 19.8592808,16.9906438 19.9078973,17.0168219 C19.9666644,17.049411 20.0227603,17.0846712 20.0852671,17.1103151 C20.1461712,17.1359589 20.2102808,17.1498493 20.2733219,17.1685479 C20.3267466,17.1845753 20.3785685,17.205411 20.4341301,17.2160959 C20.5548699,17.240137 20.6777466,17.2529589 20.800089,17.2529589 C20.9229658,17.2529589 21.0453082,17.240137 21.1660479,17.2160959 C21.2216096,17.205411 21.2734315,17.1845753 21.3268562,17.1685479 C21.3904315,17.1498493 21.4540068,17.1359589 21.514911,17.1103151 C21.5774178,17.0846712 21.6340479,17.049411 21.6922808,17.0168219 C21.7408973,16.9906438 21.7911164,16.969274 21.8375959,16.9382877 C21.9326918,16.8747123 22.0203082,16.8020548 22.1020479,16.7224521 C22.1084589,16.7165753 22.1159384,16.7123014 22.1223493,16.7058904 L28.6081027,10.220137 C29.3384178,9.48982192 29.3384178,8.30593151 28.6081027,7.57561644 C27.8777877,6.84583562 26.6938973,6.84583562 25.9635822,7.57561644 L22.6699521,10.8687123 L22.6699521,1.86986301 C22.6699521,0.837164384 21.8327877,0 20.800089,0 C19.7673904,0 18.930226,0.837164384 18.930226,1.86986301 L18.930226,10.8687123 L15.6371301,7.57561644 C14.9062808,6.84583562 13.7229247,6.84583562 12.9920753,7.57561644 C12.2622945,8.30593151 12.2622945,9.48982192 12.9920753,10.220137 L19.4778288,16.7058904 Z" id="Fill-1" fill="#FFFFFF"></path>
                    <g id="Group-5" transform="translate(12.287671, 21.161453)">
                        <mask id="mask-2" fill="white">
                            <use xlink:href="#path-1"></use>
                        </mask>
                        <g id="Clip-4"></g>
                        <path d="M9.83478493,0.924460274 C9.82837397,0.918049315 9.82089452,0.913775342 9.81394932,0.90789863 C9.73274384,0.82829589 9.6451274,0.755638356 9.55003151,0.691528767 C9.50355205,0.661076712 9.45333288,0.639706849 9.40471644,0.612994521 C9.34594932,0.580939726 9.28985342,0.545679452 9.22734658,0.51950137 C9.16751096,0.494926027 9.10500411,0.481035616 9.0441,0.462871233 C8.98853836,0.446309589 8.93564795,0.424939726 8.87794932,0.413720548 C8.76629178,0.391816438 8.65249726,0.381131507 8.53816849,0.379528767 C8.52962055,0.378994521 8.52160685,0.377391781 8.51252466,0.377391781 C8.50344247,0.377391781 8.49542877,0.378994521 8.48688082,0.379528767 C8.37255205,0.381131507 8.25875753,0.391816438 8.14656575,0.413720548 C8.08940137,0.424939726 8.03597671,0.446309589 7.98094932,0.462871233 C7.91951096,0.481035616 7.85700411,0.494926027 7.79770274,0.51950137 C7.73519589,0.545679452 7.67856575,0.580939726 7.61979863,0.613528767 C7.57171644,0.639706849 7.52096301,0.661076712 7.47501781,0.691528767 C7.37992192,0.755638356 7.29230548,0.82829589 7.21056575,0.90789863 C7.20415479,0.913775342 7.19667534,0.918049315 7.19026438,0.924460274 L0.704510959,7.4102137 C-0.0258041096,8.14052877 -0.0258041096,9.32441918 0.704510959,10.0547342 C1.43482603,10.7845151 2.61871644,10.7845151 3.34903151,10.0547342 L6.64266164,6.76110411 L6.64266164,15.7604877 C6.64266164,16.7931863 7.47982603,17.6303507 8.51252466,17.6303507 C9.54522329,17.6303507 10.3823877,16.7931863 10.3823877,15.7604877 L10.3823877,6.76110411 L13.6754836,10.0547342 C14.0409082,10.4196247 14.5195932,10.602337 14.9982781,10.602337 C15.4764288,10.602337 15.9551137,10.4196247 16.3205384,10.0547342 C17.0503192,9.32441918 17.0503192,8.14052877 16.3205384,7.4102137 L9.83478493,0.924460274 Z" id="Fill-3" fill="#FFFFFF" mask="url(#mask-2)"></path>
                    </g>
                    <g id="Group-8" transform="translate(0.000000, 11.010768)">
                        <mask id="mask-4" fill="white">
                            <use xlink:href="#path-3"></use>
                        </mask>
                        <g id="Clip-7"></g>
                        <path d="M16.7228795,9.68631781 C16.8019479,9.60511233 16.8751397,9.51749589 16.9381808,9.42293425 C16.9707699,9.37431781 16.9932082,9.3214274 17.0204548,9.27120822 C17.0509068,9.21457808 17.0850986,9.16061918 17.1102082,9.10078356 C17.1363863,9.03720822 17.1518795,8.9704274 17.1705781,8.90471507 C17.185537,8.8534274 17.2058384,8.80481096 17.215989,8.75192055 C17.2646055,8.50990685 17.2646055,8.2604137 17.215989,8.01893425 C17.2053041,7.96497534 17.185537,7.91582466 17.1700438,7.86346849 C17.1513452,7.79829041 17.1363863,7.73311233 17.1102082,7.67007123 C17.0845644,7.60756438 17.0493041,7.55200274 17.0177836,7.49376986 C16.9910712,7.44515342 16.9697014,7.39493425 16.9381808,7.34792055 C16.8697973,7.24587945 16.7923315,7.14971507 16.7052493,7.06263288 L10.2200301,0.577413699 C9.49024932,-0.152367123 8.3063589,-0.15290137 7.57550959,0.576879452 C6.84519452,1.30719452 6.84519452,2.49108493 7.57550959,3.2214 L10.8691397,6.51503014 L1.86975616,6.51503014 C0.837057534,6.51503014 -0.000106849315,7.35272877 -0.000106849315,8.38489315 C-0.000106849315,9.41812603 0.837057534,10.2547562 1.86975616,10.2547562 L10.8691397,10.2547562 L7.57550959,13.5483863 C6.84519452,14.2792356 6.84519452,15.463126 7.57550959,16.1934411 C7.94093425,16.5577973 8.41961918,16.7405096 8.89776986,16.7405096 C9.37645479,16.7405096 9.85513973,16.5577973 10.2200301,16.1934411 L16.7057836,9.70768767 C16.7121945,9.70074247 16.7164685,9.69326301 16.7228795,9.68631781" id="Fill-6" fill="#FFFFFF" mask="url(#mask-4)"></path>
                    </g>
                    <path d="M44.8412384,20.4336493 C44.8738274,20.3850329 44.8962658,20.3326767 44.9235123,20.2819233 C44.9539644,20.2252932 44.9881562,20.1713342 45.0132658,20.1114986 C45.0394438,20.0479233 45.054937,19.9811425 45.0741699,19.9154301 C45.0891288,19.8646767 45.1088959,19.815526 45.1195808,19.7626356 C45.167663,19.5206219 45.167663,19.2711288 45.1195808,19.0296493 C45.1083616,18.9756904 45.0885945,18.9265397 45.0736356,18.8741836 C45.0544027,18.8090055 45.0394438,18.7438274 45.0132658,18.6807863 C44.9876219,18.6188137 44.9523616,18.5627178 44.9208411,18.5050192 C44.8941288,18.4558685 44.8727589,18.4056493 44.8417726,18.3586356 C44.773389,18.2565945 44.695389,18.1604301 44.6083068,18.0733479 L38.1230877,11.5881288 C37.3933068,10.8583479 36.2094164,10.8578137 35.4791014,11.5875945 C34.7482521,12.3184438 34.7482521,13.5018 35.4785671,14.2326493 L38.7721973,17.5262795 L29.7728137,17.5262795 C28.7401151,17.5262795 27.9029507,18.3634438 27.9029507,19.3961425 C27.9029507,20.4288411 28.7401151,21.2660055 29.7728137,21.2660055 L38.7721973,21.2660055 L35.4785671,24.5596356 C34.7482521,25.2899507 34.7482521,26.4738411 35.4785671,27.2041562 C35.8439918,27.5685123 36.3226767,27.7512247 36.8008274,27.7512247 C37.2795123,27.7512247 37.7581973,27.5685123 38.1230877,27.2041562 L44.6088411,20.7184027 C44.6152521,20.7119918 44.619526,20.7039781 44.625937,20.6970329 C44.7050055,20.6158274 44.7781973,20.528211 44.8412384,20.4336493" id="Fill-9" fill="#FFFFFF"></path>
                    <path d="M60.6181808,11.2152781 L60.6181808,17.5541137 L61.5637973,17.5541137 C62.3288384,17.5541137 62.9138384,17.3040863 63.318263,16.8040315 C63.7226877,16.3039767 63.9289068,15.5891548 63.9374548,14.6584973 L63.9374548,14.1563055 C63.9374548,13.1909219 63.7376466,12.4595384 63.3374959,11.9616205 C62.9373452,11.464237 62.3528795,11.2152781 61.5835644,11.2152781 L60.6181808,11.2152781 Z M58.6617699,19.1258671 L58.6617699,9.63016849 L61.5835644,9.63016849 C62.4180575,9.63016849 63.1649342,9.81875753 63.8236603,10.1943329 C64.4818521,10.5704425 64.9963315,11.1052233 65.3660301,11.7986753 C65.7351945,12.4926616 65.9200438,13.2801411 65.9200438,14.1632507 L65.9200438,14.5997301 C65.9200438,15.4823055 65.7384,16.2671137 65.3756466,16.9541548 C65.0128932,17.6411959 64.5005507,18.1733055 63.8396877,18.5515521 C63.1788247,18.9297986 62.4330164,19.1215932 61.6027973,19.1258671 L58.6617699,19.1258671 Z" id="Fill-11" fill="#FFFFFF"></path>
                    <mask id="mask-6" fill="white">
                        <use xlink:href="#path-5"></use>
                    </mask>
                    <g id="Clip-14"></g>
                    <polygon id="Fill-13" fill="#FFFFFF" mask="url(#mask-6)" points="67.465726 19.1254397 69.422137 19.1254397 69.422137 9.63027534 67.465726 9.63027534"></polygon>
                    <path d="M73.1917808,14.0649493 L74.7699452,14.0649493 C75.2614521,14.0649493 75.6413014,13.9404699 75.9110959,13.6899082 C76.1808904,13.4398808 76.3155205,13.095826 76.3155205,12.6561411 C76.3155205,12.2084425 76.1883699,11.856374 75.9340685,11.5999356 C75.6797671,11.3434973 75.2892329,11.2152781 74.7635342,11.2152781 L73.1917808,11.2152781 L73.1917808,14.0649493 Z M74.7501781,15.6500589 L73.1917808,15.6500589 L73.1917808,19.1258671 L71.2353699,19.1258671 L71.2353699,9.63016849 L74.7635342,9.63016849 C75.8854521,9.63016849 76.7503973,9.88073014 77.3589041,10.3807849 C77.967411,10.8803055 78.2719315,11.5865795 78.2719315,12.4996068 C78.2719315,13.1476479 78.1319589,13.6877712 77.8514795,14.120511 C77.571,14.5532507 77.1457397,14.8978397 76.5762329,15.1542781 L78.6309452,19.034511 L78.6309452,19.1258671 L76.5308219,19.1258671 L74.7501781,15.6500589 Z" id="Fill-15" fill="#FFFFFF" mask="url(#mask-6)"></path>
                    <polygon id="Fill-16" fill="#FFFFFF" mask="url(#mask-6)" points="85.4718658 15.0108329 81.7155781 15.0108329 81.7155781 17.5543808 86.1241808 17.5543808 86.1241808 19.1256 79.7591671 19.1256 79.7591671 9.63043562 86.1108247 9.63043562 86.1108247 11.2155452 81.7155781 11.2155452 81.7155781 13.4780795 85.4718658 13.4780795"></polygon>
                    <path d="M94.7259781,15.9629671 C94.6517178,16.9844466 94.275074,17.7890219 93.5944438,18.3761589 C92.9138137,18.9627616 92.0173479,19.256063 90.9045123,19.256063 C89.6869644,19.256063 88.7295945,18.8462959 88.0313342,18.0267616 C87.3341425,17.2072274 86.9847452,16.0826384 86.9847452,14.651926 L86.9847452,14.0717342 C86.9847452,13.1587068 87.1455534,12.3541315 87.4677041,11.6585425 C87.7893205,10.9634877 88.2487726,10.4292411 88.8471288,10.0574055 C89.4444164,9.68556986 90.138937,9.49965205 90.9306904,9.49965205 C92.0258959,9.49965205 92.9084712,9.79348767 93.5784164,10.3806247 C94.2472932,10.9672274 94.6346219,11.7910356 94.7388,12.8520493 L92.782389,12.8520493 C92.7343068,12.2387342 92.5644164,11.7942411 92.2705808,11.5185699 C91.9772795,11.2423644 91.5306493,11.1039945 90.9306904,11.1039945 C90.2783753,11.1039945 89.790074,11.3379945 89.4663205,11.8054603 C89.1425671,12.272926 88.9758822,12.9978986 88.9673342,13.9803781 L88.9673342,14.6978712 C88.9673342,15.7241589 89.1228,16.4737068 89.4337315,16.9475836 C89.744663,17.4214603 90.2345671,17.6586658 90.9045123,17.6586658 C91.5087452,17.6586658 91.9596493,17.5202959 92.2572247,17.2440904 C92.5553342,16.9684192 92.7257589,16.5410219 92.7695671,15.9629671 L94.7259781,15.9629671 Z" id="Fill-17" fill="#FFFFFF" mask="url(#mask-6)"></path>
                    <path d="M103.464863,15.9629671 C103.390603,16.9844466 103.013959,17.7890219 102.333329,18.3761589 C101.652699,18.9627616 100.756233,19.256063 99.6433973,19.256063 C98.4258493,19.256063 97.4684795,18.8462959 96.7702192,18.0267616 C96.0730274,17.2072274 95.7236301,16.0826384 95.7236301,14.651926 L95.7236301,14.0717342 C95.7236301,13.1587068 95.8844384,12.3541315 96.206589,11.6585425 C96.5282055,10.9634877 96.9876575,10.4292411 97.5860137,10.0574055 C98.1833014,9.68556986 98.8778219,9.49965205 99.6695753,9.49965205 C100.764781,9.49965205 101.647356,9.79348767 102.317301,10.3806247 C102.986178,10.9672274 103.373507,11.7910356 103.477685,12.8520493 L101.521274,12.8520493 C101.473192,12.2387342 101.303301,11.7942411 101.009466,11.5185699 C100.716164,11.2423644 100.269534,11.1039945 99.6695753,11.1039945 C99.0172603,11.1039945 98.5289589,11.3379945 98.2052055,11.8054603 C97.8814521,12.272926 97.7147671,12.9978986 97.7062192,13.9803781 L97.7062192,14.6978712 C97.7062192,15.7241589 97.8616849,16.4737068 98.1726164,16.9475836 C98.4835479,17.4214603 98.9734521,17.6586658 99.6433973,17.6586658 C100.24763,17.6586658 100.698534,17.5202959 100.99611,17.2440904 C101.294219,16.9684192 101.464644,16.5410219 101.508452,15.9629671 L103.464863,15.9629671 Z" id="Fill-18" fill="#FFFFFF" mask="url(#mask-6)"></path>
                    <polygon id="Fill-19" fill="#FFFFFF" mask="url(#mask-6)" points="104.873671 19.1254397 106.830082 19.1254397 106.830082 9.63027534 104.873671 9.63027534"></polygon>
                    <path d="M112.777689,7.08683425 L114.831867,7.08683425 L113.025579,9.10842329 L111.492826,9.10842329 L112.777689,7.08683425 Z M114.460032,14.1629301 C114.460032,13.1676288 114.281593,12.4111356 113.925251,11.8934507 C113.568908,11.3757658 113.060305,11.1171904 112.399442,11.1171904 C111.742853,11.1171904 111.236388,11.3725603 110.880045,11.8838342 C110.523168,12.394574 110.342593,13.1435877 110.338853,14.1303411 L110.338853,14.5935329 C110.338853,15.5626562 110.516758,16.3148753 110.873634,16.8496562 C111.229977,17.384437 111.742853,17.6515603 112.412264,17.6515603 C113.068853,17.6515603 113.573182,17.3940534 113.925251,16.8790397 C114.277853,16.3634918 114.455758,15.6128753 114.460032,14.6255877 L114.460032,14.1629301 Z M116.442621,14.5935329 C116.442621,15.5284644 116.277538,16.3474644 115.947374,17.0516014 C115.616675,17.7562726 115.143867,18.2996014 114.528415,18.6821219 C113.913497,19.0651767 113.208292,19.2559027 112.412264,19.2559027 C111.625319,19.2559027 110.923319,19.0673137 110.306264,18.6890671 C109.688675,18.3108205 109.210525,17.770163 108.871278,17.068163 C108.532032,16.366163 108.360004,15.5583822 108.356264,14.6453548 L108.356264,14.1762863 C108.356264,13.2413548 108.524552,12.4180808 108.861662,11.7069986 C109.198237,10.9964507 109.674251,10.4509849 110.289703,10.0706014 C110.905155,9.69021781 111.608223,9.50002603 112.399442,9.50002603 C113.190662,9.50002603 113.89373,9.69021781 114.509182,10.0706014 C115.124634,10.4509849 115.600648,10.9964507 115.937223,11.7069986 C116.274333,12.4180808 116.442621,13.2392178 116.442621,14.1693411 L116.442621,14.5935329 Z" id="Fill-20" fill="#FFFFFF" mask="url(#mask-6)"></path>
                    <polygon id="Fill-21" fill="#FFFFFF" mask="url(#mask-6)" points="125.586037 19.1256534 123.629626 19.1256534 119.820982 12.878174 119.820982 19.1256534 117.864571 19.1256534 117.864571 9.63048904 119.820982 9.63048904 123.636037 15.8907904 123.636037 9.63048904 125.586037 9.63048904"></polygon>
                    <path d="M138.133512,17.9256822 C137.781444,18.347737 137.283526,18.6746959 136.640293,18.9070932 C135.996526,19.1394904 135.283841,19.2559562 134.50117,19.2559562 C133.679499,19.2559562 132.958266,19.0764493 132.339074,18.7179699 C131.719348,18.3594904 131.241197,17.8391342 130.904622,17.1563671 C130.567512,16.4736 130.394416,15.6716959 130.385868,14.7501205 L130.385868,14.1042164 C130.385868,13.156463 130.545608,12.3358603 130.865622,11.641874 C131.184567,10.9484219 131.645622,10.4184493 132.247718,10.0508877 C132.849814,9.68332603 133.555553,9.50007945 134.363868,9.50007945 C135.49006,9.50007945 136.370499,9.76827123 137.005184,10.305189 C137.639868,10.8421068 138.015978,11.6237096 138.133512,12.6499973 L136.229458,12.6499973 C136.141841,12.1061342 135.950047,11.7086548 135.651937,11.4564904 C135.354362,11.204326 134.944595,11.0782438 134.422636,11.0782438 C133.757499,11.0782438 133.251033,11.3282712 132.903238,11.828326 C132.555444,12.3278466 132.379142,13.0715178 132.374868,14.0588055 L132.374868,14.6646411 C132.374868,15.661011 132.563992,16.4126959 132.942238,16.9212986 C133.320485,17.4299014 133.875033,17.684737 134.605348,17.684737 C135.339937,17.684737 135.864033,17.5282027 136.177101,17.2151342 L136.177101,15.5776685 L134.396458,15.5776685 L134.396458,14.1368055 L138.133512,14.1368055 L138.133512,17.9256822 Z" id="Fill-22" fill="#FFFFFF" mask="url(#mask-6)"></path>
                    <polygon id="Fill-23" fill="#FFFFFF" mask="url(#mask-6)" points="145.43116 15.0108329 141.674873 15.0108329 141.674873 17.5543808 146.083475 17.5543808 146.083475 19.1256 139.718462 19.1256 139.718462 9.63043562 146.070119 9.63043562 146.070119 11.2155452 141.674873 11.2155452 141.674873 13.4780795 145.43116 13.4780795"></polygon>
                    <polygon id="Fill-24" fill="#FFFFFF" mask="url(#mask-6)" points="154.952663 19.1256534 152.996252 19.1256534 149.187608 12.878174 149.187608 19.1256534 147.231197 19.1256534 147.231197 9.63048904 149.187608 9.63048904 153.002663 15.8907904 153.002663 9.63048904 154.952663 9.63048904"></polygon>
                    <polygon id="Fill-25" fill="#FFFFFF" mask="url(#mask-6)" points="162.374203 15.0108329 158.617915 15.0108329 158.617915 17.5543808 163.026518 17.5543808 163.026518 19.1256 156.661504 19.1256 156.661504 9.63043562 163.013162 9.63043562 163.013162 11.2155452 158.617915 11.2155452 158.617915 13.4780795 162.374203 13.4780795"></polygon>
                    <path d="M166.130597,14.0649493 L167.708762,14.0649493 C168.200268,14.0649493 168.580118,13.9404699 168.849912,13.6899082 C169.119707,13.4398808 169.254337,13.095826 169.254337,12.6561411 C169.254337,12.2084425 169.127186,11.856374 168.872885,11.5999356 C168.618584,11.3434973 168.228049,11.2152781 167.702351,11.2152781 L166.130597,11.2152781 L166.130597,14.0649493 Z M167.688995,15.6500589 L166.130597,15.6500589 L166.130597,19.1258671 L164.174186,19.1258671 L164.174186,9.63016849 L167.702351,9.63016849 C168.824268,9.63016849 169.689214,9.88073014 170.297721,10.3807849 C170.906227,10.8803055 171.210748,11.5865795 171.210748,12.4996068 C171.210748,13.1476479 171.070775,13.6877712 170.790296,14.120511 C170.509816,14.5532507 170.084556,14.8978397 169.515049,15.1542781 L171.569762,19.034511 L171.569762,19.1258671 L169.469638,19.1258671 L167.688995,15.6500589 Z" id="Fill-26" fill="#FFFFFF" mask="url(#mask-6)"></path>
                    <path d="M175.156426,15.5847205 L177.530084,15.5847205 L176.336577,12.0303781 L175.156426,15.5847205 Z M178.058453,17.1692959 L174.628056,17.1692959 L173.976275,19.1257068 L171.895385,19.1257068 L175.430495,9.63000822 L177.243193,9.63000822 L180.797536,19.1257068 L178.717179,19.1257068 L178.058453,17.1692959 Z" id="Fill-27" fill="#FFFFFF" mask="url(#mask-6)"></path>
                    <polygon id="Fill-28" fill="#FFFFFF" mask="url(#mask-6)" points="183.64101 17.5542205 187.795311 17.5542205 187.795311 19.1254397 181.684599 19.1254397 181.684599 9.63027534 183.64101 9.63027534"></polygon>
                    <path d="M194.199432,11.2152781 L194.199432,17.5541137 L195.145048,17.5541137 C195.910089,17.5541137 196.495089,17.3040863 196.899514,16.8040315 C197.303938,16.3039767 197.510158,15.5891548 197.518705,14.6584973 L197.518705,14.1563055 C197.518705,13.1909219 197.318897,12.4595384 196.918747,11.9616205 C196.518596,11.464237 195.93413,11.2152781 195.164815,11.2152781 L194.199432,11.2152781 Z M192.243021,19.1258671 L192.243021,9.63016849 L195.164815,9.63016849 C195.999308,9.63016849 196.746185,9.81875753 197.404911,10.1943329 C198.063103,10.5704425 198.577582,11.1052233 198.947281,11.7986753 C199.316445,12.4926616 199.501295,13.2801411 199.501295,14.1632507 L199.501295,14.5997301 C199.501295,15.4823055 199.319651,16.2671137 198.956897,16.9541548 C198.594144,17.6411959 198.081801,18.1733055 197.420938,18.5515521 C196.760075,18.9297986 196.014267,19.1215932 195.184048,19.1258671 L192.243021,19.1258671 Z" id="Fill-29" fill="#FFFFFF" mask="url(#mask-6)"></path>
                    <polygon id="Fill-30" fill="#FFFFFF" mask="url(#mask-6)" points="206.636051 15.0108329 202.879763 15.0108329 202.879763 17.5543808 207.288366 17.5543808 207.288366 19.1256 200.923352 19.1256 200.923352 9.63043562 207.27501 9.63043562 207.27501 11.2155452 202.879763 11.2155452 202.879763 13.4780795 206.636051 13.4780795"></polygon>
                    <path d="M213.718451,14.0649493 L215.296615,14.0649493 C215.788122,14.0649493 216.167971,13.9404699 216.437766,13.6899082 C216.70756,13.4398808 216.84219,13.095826 216.84219,12.6561411 C216.84219,12.2084425 216.71504,11.856374 216.460738,11.5999356 C216.206437,11.3434973 215.815903,11.2152781 215.290204,11.2152781 L213.718451,11.2152781 L213.718451,14.0649493 Z M215.276848,15.6500589 L213.718451,15.6500589 L213.718451,19.1258671 L211.76204,19.1258671 L211.76204,9.63016849 L215.290204,9.63016849 C216.412122,9.63016849 217.277067,9.88073014 217.885574,10.3807849 C218.494081,10.8803055 218.798601,11.5865795 218.798601,12.4996068 C218.798601,13.1476479 218.658629,13.6877712 218.378149,14.120511 C218.09767,14.5532507 217.67241,14.8978397 217.102903,15.1542781 L219.157615,19.034511 L219.157615,19.1258671 L217.057492,19.1258671 L215.276848,15.6500589 Z" id="Fill-31" fill="#FFFFFF" mask="url(#mask-6)"></path>
                    <polygon id="Fill-32" fill="#FFFFFF" mask="url(#mask-6)" points="225.998536 15.0108329 222.242248 15.0108329 222.242248 17.5543808 226.650851 17.5543808 226.650851 19.1256 220.285837 19.1256 220.285837 9.63043562 226.637495 9.63043562 226.637495 11.2155452 222.242248 11.2155452 222.242248 13.4780795 225.998536 13.4780795"></polygon>
                    <polygon id="Fill-33" fill="#FFFFFF" mask="url(#mask-6)" points="235.520038 19.1256534 233.563627 19.1256534 229.754984 12.878174 229.754984 19.1256534 227.798573 19.1256534 227.798573 9.63048904 229.754984 9.63048904 233.570038 15.8907904 233.570038 9.63048904 235.520038 9.63048904"></polygon>
                    <polygon id="Fill-34" fill="#FFFFFF" mask="url(#mask-6)" points="244.187227 11.2152781 241.278789 11.2152781 241.278789 19.1258671 239.322378 19.1258671 239.322378 11.2152781 236.452405 11.2152781 236.452405 9.63016849 244.187227 9.63016849"></polygon>
                    <path d="M246.978452,15.5847205 L249.35211,15.5847205 L248.158603,12.0303781 L246.978452,15.5847205 Z M249.880479,17.1692959 L246.450082,17.1692959 L245.798301,19.1257068 L243.717411,19.1257068 L247.252521,9.63000822 L249.065219,9.63000822 L252.619562,19.1257068 L250.539205,19.1257068 L249.880479,17.1692959 Z" id="Fill-35" fill="#FFFFFF" mask="url(#mask-6)"></path>
                    <path d="M258.430295,16.6344082 C258.430295,16.2652438 258.299938,15.9810247 258.039226,15.7833534 C257.777979,15.5856822 257.308377,15.3767918 256.630418,15.1572164 C255.951925,14.9376411 255.415007,14.7218055 255.019664,14.5086411 C253.941021,13.9263123 253.401966,13.1415041 253.401966,12.1542164 C253.401966,11.6413397 253.546747,11.1834904 253.835774,10.7812027 C254.124801,10.3794493 254.539911,10.0653123 255.081637,9.83879178 C255.622829,9.61280548 256.230267,9.50007945 256.904486,9.50007945 C257.582445,9.50007945 258.186678,9.62295616 258.717185,9.86817534 C259.247692,10.1139288 259.659596,10.4606548 259.952897,10.9083534 C260.246733,11.3565863 260.393116,11.865189 260.393116,12.4346959 L258.436705,12.4346959 C258.436705,11.9998192 258.299938,11.6616411 258.02587,11.4201616 C257.751801,11.1792164 257.367144,11.0584767 256.871897,11.0584767 C256.393212,11.0584767 256.021377,11.1594493 255.75639,11.3619288 C255.491404,11.563874 255.358377,11.830463 255.358377,12.1606274 C255.358377,12.4694219 255.514377,12.7279973 255.825308,12.9368877 C256.135705,13.1457781 256.593555,13.3413123 257.197788,13.5240247 C258.310623,13.8589973 259.12161,14.2735726 259.630212,14.7693534 C260.138815,15.2651342 260.393116,15.8827233 260.393116,16.6215863 C260.393116,17.4432575 260.082185,18.0880932 259.460856,18.5550247 C258.838993,19.0224904 258.001829,19.2559562 256.949897,19.2559562 C256.219582,19.2559562 255.554445,19.1223945 254.954486,18.854737 C254.354527,18.5876137 253.896678,18.2216548 253.581473,17.756326 C253.266267,17.2909973 253.108664,16.7519425 253.108664,16.1386274 L255.071486,16.1386274 C255.071486,17.1868192 255.697623,17.7109151 256.949897,17.7109151 C257.415226,17.7109151 257.777979,17.6158192 258.039226,17.4266959 C258.299938,17.2375726 258.430295,16.9736548 258.430295,16.6344082" id="Fill-36" fill="#FFFFFF" mask="url(#mask-6)"></path>
                    <polygon id="Fill-37" fill="#FFFFFF" mask="url(#mask-6)" points="59.9895329 23.9036342 62.472711 30.101963 64.9564233 23.9036342 66.255711 23.9036342 66.255711 31.5000863 65.2539986 31.5000863 65.2539986 28.541963 65.3474918 25.3487712 62.8536288 31.5000863 62.0869849 31.5000863 59.5984644 25.3642644 59.6973 28.541963 59.6973 31.5000863 58.6955877 31.5000863 58.6955877 23.9036342"></polygon>
                    <path d="M69.2090055,31.5001932 L70.2078575,31.5001932 L70.2078575,25.8553438 L69.2090055,25.8553438 L69.2090055,31.5001932 Z M69.1283014,24.3573164 C69.1283014,24.2007822 69.1774977,24.0688233 69.2764432,23.9609055 C69.3753887,23.8535219 69.5218723,23.7990288 69.7164466,23.7990288 C69.911021,23.7990288 70.0586101,23.8535219 70.1592139,23.9609055 C70.2598177,24.0688233 70.3101196,24.2007822 70.3101196,24.3573164 C70.3101196,24.5138507 70.2598177,24.6447411 70.1592139,24.7489192 C70.0586101,24.8530973 69.911021,24.9054534 69.7164466,24.9054534 C69.5218723,24.9054534 69.3753887,24.8530973 69.2764432,24.7489192 C69.1774977,24.6447411 69.1283014,24.5138507 69.1283014,24.3573164 L69.1283014,24.3573164 Z" id="Fill-38" fill="#FFFFFF" mask="url(#mask-6)"></path>
                    <path d="M73.8791425,25.854863 L73.910663,26.5643425 C74.3418,26.0215479 74.9048959,25.7506849 75.6010192,25.7506849 C76.7939918,25.7506849 77.3955534,26.4233014 77.4062384,27.7696027 L77.4062384,31.4997123 L76.4408548,31.4997123 L76.4408548,27.7642603 C76.4376493,27.3576986 76.3441562,27.0569178 76.1614438,26.8619178 C75.9792658,26.6674521 75.6945123,26.5696849 75.3087863,26.5696849 C74.9957178,26.5696849 74.7211151,26.6530274 74.4844438,26.8202466 C74.2477726,26.9869315 74.0634575,27.2059726 73.9314986,27.4773699 L73.9314986,31.4997123 L72.9661151,31.4997123 L72.9661151,25.854863 L73.8791425,25.854863 Z" id="Fill-39" fill="#FFFFFF" mask="url(#mask-6)"></path>
                    <path d="M80.1979039,31.5001932 L81.1962888,31.5001932 L81.1962888,25.8553438 L80.1979039,25.8553438 L80.1979039,31.5001932 Z M80.1166849,24.3573164 C80.1166849,24.2007822 80.1664108,24.0688233 80.26531,23.9609055 C80.3642093,23.8535219 80.5106243,23.7990288 80.7051077,23.7990288 C80.8990386,23.7990288 81.0471112,23.8535219 81.147668,23.9609055 C81.2482247,24.0688233 81.2985031,24.2007822 81.2985031,24.3573164 C81.2985031,24.5138507 81.2482247,24.6447411 81.147668,24.7489192 C81.0471112,24.8530973 80.8990386,24.9054534 80.7051077,24.9054534 C80.5106243,24.9054534 80.3642093,24.8530973 80.26531,24.7489192 C80.1664108,24.6447411 80.1166849,24.5138507 80.1166849,24.3573164 L80.1166849,24.3573164 Z" id="Fill-40" fill="#FFFFFF" mask="url(#mask-6)"></path>
                    <path d="M87.2415575,30.0025932 C87.2415575,29.7418808 87.1432562,29.5394014 86.9466534,29.3946205 C86.7505849,29.2509082 86.4075986,29.1258945 85.918763,29.0217164 C85.4304616,28.9175384 85.0425986,28.7919904 84.7557082,28.6461411 C84.4688178,28.4997575 84.2567219,28.3261274 84.1188863,28.1241822 C83.9815849,27.9227712 83.9132014,27.6828945 83.9132014,27.4045521 C83.9132014,26.9418945 84.1087356,26.550826 84.4998041,26.2302781 C84.8914068,25.9107986 85.3914616,25.7505247 85.9999685,25.7505247 C86.6399959,25.7505247 87.1587493,25.9161411 87.5572973,26.2463055 C87.955311,26.5770041 88.1545849,26.9995932 88.1545849,27.5140726 L87.1843932,27.5140726 C87.1843932,27.2501548 87.0722014,27.0220315 86.8478178,26.8307712 C86.6234342,26.639511 86.3408178,26.5433466 85.9999685,26.5433466 C85.6484342,26.5433466 85.3738315,26.6202781 85.175626,26.7730726 C84.9774205,26.9264014 84.8780507,27.1262096 84.8780507,27.3730315 C84.8780507,27.6064973 84.9704753,27.7822644 85.1547904,27.8997986 C85.3391055,28.0184014 85.6719411,28.1316616 86.1538315,28.2390452 C86.6357219,28.346963 87.0257219,28.4762507 87.3249,28.6253055 C87.6240781,28.7748945 87.8457904,28.9549356 87.990037,29.1654288 C88.1342836,29.3759219 88.2069411,29.6323603 88.2069411,29.9347438 C88.2069411,30.4390726 88.0049959,30.8434973 87.6016397,31.1480178 C87.1977493,31.4525384 86.6747219,31.6042644 86.0309548,31.6042644 C85.5789822,31.6042644 85.1788315,31.5246616 84.831037,31.3643877 C84.4832425,31.2046479 84.211311,30.9807986 84.0147082,30.6939082 C83.8181055,30.4070178 83.7198041,30.0966205 83.7198041,29.7627164 L84.6851877,29.7627164 C84.7028178,30.0859356 84.8321055,30.3429082 85.0735849,30.5320315 C85.3155986,30.7222233 85.6345438,30.8162507 86.0309548,30.8162507 C86.3963795,30.8162507 86.6891466,30.7430589 86.9103247,30.5945384 C87.1309685,30.4470863 87.2415575,30.2499493 87.2415575,30.0025932" id="Fill-41" fill="#FFFFFF" mask="url(#mask-6)"></path>
                    <path d="M92.0239726,24.4879397 L92.0239726,25.8550767 L93.0780411,25.8550767 L93.0780411,26.6008849 L92.0239726,26.6008849 L92.0239726,30.106611 C92.0239726,30.3325973 92.0709863,30.5024877 92.1650137,30.6157479 C92.2585068,30.7290082 92.4187808,30.7851041 92.6447671,30.7851041 C92.7564247,30.7851041 92.9092192,30.7642685 93.1036849,30.7225973 L93.1036849,31.5004603 C92.8499178,31.5699123 92.6030959,31.6041041 92.3632192,31.6041041 C91.9320822,31.6041041 91.606726,31.4737479 91.3876849,31.2130356 C91.1681096,30.9523233 91.058589,30.5815562 91.058589,30.1018027 L91.058589,26.6008849 L90.0312329,26.6008849 L90.0312329,25.8550767 L91.058589,25.8550767 L91.058589,24.4879397 L92.0239726,24.4879397 Z" id="Fill-42" fill="#FFFFFF" mask="url(#mask-6)"></path>
                    <path d="M97.6773699,26.5435603 C97.2879041,26.5435603 96.9609452,26.6856699 96.6964932,26.9688205 C96.4320411,27.2525055 96.2685616,27.6494507 96.2060548,28.1607247 L99.0338219,28.1607247 L99.0338219,28.0880671 C99.0060411,27.5976288 98.8740822,27.2177795 98.637411,26.9479849 C98.4007397,26.6787247 98.080726,26.5435603 97.6773699,26.5435603 M97.7975753,31.6044781 C97.032,31.6044781 96.4096027,31.3533822 95.9298493,30.8506562 C95.4495616,30.3479301 95.2096849,29.6758479 95.2096849,28.8338753 L95.2096849,28.6565055 C95.2096849,28.0966151 95.3165342,27.5970945 95.5302329,27.1563411 C95.7444658,26.7166562 96.0436438,26.3726014 96.4277671,26.1236425 C96.8118904,25.8752178 97.2286027,25.7507384 97.6773699,25.7507384 C98.4114247,25.7507384 98.9814658,25.9927521 99.3885616,26.475711 C99.7956575,26.9592041 99.9992055,27.6515877 99.9992055,28.5523274 L99.9992055,28.9540808 L96.1745342,28.9540808 C96.1884247,29.5107658 96.3513699,29.9606014 96.6628356,30.3025192 C96.9737671,30.6455055 97.3696438,30.8164644 97.8493973,30.8164644 C98.1902466,30.8164644 98.4787397,30.7470123 98.715411,30.607574 C98.9520822,30.4692041 99.1588356,30.2843548 99.3362055,30.0546288 L99.9260137,30.5140808 C99.4532055,31.2411904 98.743726,31.6044781 97.7975753,31.6044781" id="Fill-43" fill="#FFFFFF" mask="url(#mask-6)"></path>
                    <path d="M105.094208,26.7209301 C104.948359,26.696889 104.789688,26.6846014 104.619263,26.6846014 C103.986181,26.6846014 103.557181,26.9543959 103.33066,27.4929164 L103.33066,31.4997658 L102.365811,31.4997658 L102.365811,25.8549164 L103.304482,25.8549164 L103.32051,26.5072315 C103.636784,26.0029027 104.085551,25.7507384 104.666277,25.7507384 C104.854332,25.7507384 104.996975,25.7747795 105.094208,25.8233959 L105.094208,26.7209301 Z" id="Fill-44" fill="#FFFFFF" mask="url(#mask-6)"></path>
                    <path d="M107.31731,31.5001932 L108.315695,31.5001932 L108.315695,25.8553438 L107.31731,25.8553438 L107.31731,31.5001932 Z M107.236644,24.3573164 C107.236644,24.2007822 107.285817,24.0688233 107.385269,23.9609055 C107.484168,23.8535219 107.630583,23.7990288 107.825067,23.7990288 C108.018998,23.7990288 108.166518,23.8535219 108.267074,23.9609055 C108.367631,24.0688233 108.418462,24.2007822 108.418462,24.3573164 C108.418462,24.5138507 108.367631,24.6447411 108.267074,24.7489192 C108.166518,24.8530973 108.018998,24.9054534 107.825067,24.9054534 C107.630583,24.9054534 107.484168,24.8530973 107.385269,24.7489192 C107.285817,24.6447411 107.236644,24.5138507 107.236644,24.3573164 L107.236644,24.3573164 Z" id="Fill-45" fill="#FFFFFF" mask="url(#mask-6)"></path>
                    <path d="M111.789279,28.7400082 C111.789279,29.3661452 111.934595,29.8688712 112.22469,30.2476521 C112.515321,30.6269671 112.903718,30.8166247 113.390951,30.8166247 C113.881389,30.8166247 114.270855,30.6242959 114.559882,30.2401726 C114.848375,29.8560493 114.992622,29.3175288 114.992622,28.6251452 C114.992622,28.0064877 114.845704,27.5042959 114.551868,27.1201726 C114.258033,26.7360493 113.867499,26.5437205 113.3808,26.5437205 C112.903718,26.5437205 112.519595,26.7333781 112.227362,27.1121589 C111.935129,27.491474 111.789279,28.0342685 111.789279,28.7400082 L111.789279,28.7400082 Z M110.819088,28.6251452 C110.819088,28.0722 110.92754,27.5748164 111.144978,27.1329945 C111.362416,26.6917068 111.6648,26.3503233 112.052663,26.1104466 C112.440526,25.8705699 112.882882,25.7503644 113.3808,25.7503644 C114.149047,25.7503644 114.77091,26.0164192 115.245855,26.5485288 C115.720266,27.0811726 115.958005,27.7890493 115.958005,28.6721589 L115.958005,28.7400082 C115.958005,29.2897479 115.852759,29.7828575 115.642266,30.219337 C115.431773,30.6558164 115.130992,30.9961315 114.739389,31.2392137 C114.348321,31.4828301 113.899019,31.6041041 113.390951,31.6041041 C112.62591,31.6041041 112.005649,31.3380493 111.531238,30.8059397 C111.056293,30.2738301 110.819088,29.5696932 110.819088,28.6929945 L110.819088,28.6251452 Z" id="Fill-46" fill="#FFFFFF" mask="url(#mask-6)"></path>
                    <path d="M123.044199,28.7400082 C123.044199,29.3800356 123.176692,29.8811589 123.44061,30.2428438 C123.705062,30.6045288 124.069952,30.7851041 124.536349,30.7851041 C125.148596,30.7851041 125.595226,30.5105014 125.877308,29.9607616 L125.877308,27.368063 C125.588281,26.8359534 125.144856,26.5698986 124.547034,26.5698986 C124.073692,26.5698986 123.705062,26.7520767 123.44061,27.1175014 C123.176692,27.4823918 123.044199,28.0235836 123.044199,28.7400082 L123.044199,28.7400082 Z M122.078815,28.6304877 C122.078815,27.764474 122.2845,27.0678164 122.694801,26.5410493 C123.105103,26.0137479 123.642555,25.7503644 124.306623,25.7503644 C124.967486,25.7503644 125.491048,25.9768849 125.877308,26.4288575 L125.877308,23.4862274 L126.842158,23.4862274 L126.842158,31.499926 L125.955308,31.499926 L125.908295,30.8946247 C125.522568,31.3679671 124.985116,31.6041041 124.296473,31.6041041 C123.642555,31.6041041 123.109377,31.3364466 122.697473,30.8005973 C122.285034,30.2652822 122.078815,29.5664877 122.078815,28.7036795 L122.078815,28.6304877 Z" id="Fill-47" fill="#FFFFFF" mask="url(#mask-6)"></path>
                    <path d="M131.812307,26.5435603 C131.422841,26.5435603 131.095882,26.6856699 130.83143,26.9688205 C130.566978,27.2525055 130.403499,27.6494507 130.340992,28.1607247 L133.168759,28.1607247 L133.168759,28.0880671 C133.140978,27.5976288 133.009019,27.2177795 132.772348,26.9479849 C132.535677,26.6787247 132.215663,26.5435603 131.812307,26.5435603 M131.932512,31.6044781 C131.166937,31.6044781 130.54454,31.3533822 130.064786,30.8506562 C129.584499,30.3479301 129.344622,29.6758479 129.344622,28.8338753 L129.344622,28.6565055 C129.344622,28.0966151 129.451471,27.5970945 129.66517,27.1563411 C129.879403,26.7166562 130.178581,26.3726014 130.562704,26.1236425 C130.946827,25.8752178 131.36354,25.7507384 131.812307,25.7507384 C132.546362,25.7507384 133.116403,25.9927521 133.523499,26.475711 C133.930595,26.9592041 134.134142,27.6515877 134.134142,28.5523274 L134.134142,28.9540808 L130.309471,28.9540808 C130.323362,29.5107658 130.486307,29.9606014 130.797773,30.3025192 C131.108704,30.6455055 131.504581,30.8164644 131.984334,30.8164644 C132.325184,30.8164644 132.613677,30.7470123 132.850348,30.607574 C133.087019,30.4692041 133.293773,30.2843548 133.471142,30.0546288 L134.060951,30.5140808 C133.588142,31.2411904 132.878663,31.6044781 131.932512,31.6044781" id="Fill-48" fill="#FFFFFF" mask="url(#mask-6)"></path>
                    <polygon id="Fill-49" fill="#FFFFFF" mask="url(#mask-6)" points="146.385111 31.499926 145.378056 31.499926 145.378056 27.9888575 141.548577 27.9888575 141.548577 31.499926 140.546864 31.499926 140.546864 23.903474 141.548577 23.903474 141.548577 27.1698575 145.378056 27.1698575 145.378056 23.903474 146.385111 23.903474"></polygon>
                    <path d="M151.146637,30.7643219 C151.449021,30.7643219 151.736445,30.6863219 152.007308,30.5297877 C152.278705,30.3732534 152.475308,30.1697055 152.597116,29.9191438 L152.597116,28.7608973 L151.840623,28.7608973 C150.657801,28.7608973 150.066925,29.107089 150.066925,29.7989384 C150.066925,30.1018562 150.167363,30.3385274 150.369308,30.5084178 C150.570719,30.6793767 150.830363,30.7643219 151.146637,30.7643219 L151.146637,30.7643219 Z M152.748308,31.4999795 C152.692747,31.3888562 152.647336,31.1906507 152.61261,30.905363 C152.163842,31.3717603 151.628527,31.6041575 151.005596,31.6041575 C150.449445,31.6041575 149.992664,31.447089 149.636322,31.1318836 C149.279445,30.8177466 149.101541,30.4186644 149.101541,29.934637 C149.101541,29.3475 149.324856,28.8907192 149.772021,28.565363 C150.218651,28.2400068 150.847459,28.0775959 151.657911,28.0775959 L152.597116,28.0775959 L152.597116,27.6341712 C152.597116,27.2970616 152.496144,27.0283356 152.294199,26.8279932 C152.092788,26.6281849 151.795212,26.5277466 151.402541,26.5277466 C151.057952,26.5277466 150.768925,26.6148288 150.535993,26.7889932 C150.303062,26.9631575 150.186596,27.1731164 150.186596,27.4199384 L149.216404,27.4199384 C149.216404,27.1383904 149.316308,26.8664589 149.516116,26.6036096 C149.716459,26.3412945 149.987856,26.1334726 150.330308,25.9801438 C150.67276,25.8273493 151.049404,25.7504178 151.459705,25.7504178 C152.109884,25.7504178 152.619555,25.913363 152.988185,26.2381849 C153.356815,26.5640753 153.54861,27.011774 153.561966,27.5818151 L153.561966,30.1798562 C153.561966,30.6986096 153.628212,31.1105137 153.760705,31.416637 L153.760705,31.4999795 L152.748308,31.4999795 Z" id="Fill-50" fill="#FFFFFF" mask="url(#mask-6)"></path>
                    <path d="M158.5896,30.8164644 C158.934189,30.8164644 159.23497,30.7122863 159.491942,30.5033959 C159.749449,30.2945055 159.892093,30.0337932 159.919874,29.7207247 L160.832901,29.7207247 C160.815805,30.0444781 160.704148,30.3522041 160.498997,30.644437 C160.293847,30.9366699 160.019778,31.1696014 159.677326,31.3432315 C159.334874,31.5173959 158.972121,31.6044781 158.5896,31.6044781 C157.820819,31.6044781 157.209641,31.3480397 156.755532,30.8346288 C156.301956,30.3217521 156.074901,29.6202863 156.074901,28.7296973 L156.074901,28.5678205 C156.074901,28.0186151 156.175874,27.5297795 156.377285,27.1018479 C156.57923,26.6739164 156.868792,26.3421493 157.24597,26.1054781 C157.623682,25.8688068 158.069778,25.7507384 158.584258,25.7507384 C159.21734,25.7507384 159.743573,25.9403959 160.162422,26.3191767 C160.581805,26.6984918 160.805121,27.1905329 160.832901,27.7958342 L159.919874,27.7958342 C159.892093,27.4304096 159.753723,27.1306973 159.505299,26.8956288 C159.256874,26.6610945 158.949682,26.5435603 158.584258,26.5435603 C158.093819,26.5435603 157.71397,26.7203959 157.444175,27.0729986 C157.174915,27.4261356 157.040285,27.9363411 157.040285,28.6041493 L157.040285,28.7868616 C157.040285,29.437574 157.173847,29.938163 157.442038,30.2896973 C157.709696,30.6412315 158.092216,30.8164644 158.5896,30.8164644" id="Fill-51" fill="#FFFFFF" mask="url(#mask-6)"></path>
                    <path d="M163.253995,31.5001932 L164.25238,31.5001932 L164.25238,25.8553438 L163.253995,25.8553438 L163.253995,31.5001932 Z M163.173329,24.3573164 C163.173329,24.2007822 163.223055,24.0688233 163.321954,23.9609055 C163.420853,23.8535219 163.567268,23.7990288 163.761752,23.7990288 C163.955682,23.7990288 164.103203,23.8535219 164.203759,23.9609055 C164.304869,24.0688233 164.355147,24.2007822 164.355147,24.3573164 C164.355147,24.5138507 164.304869,24.6447411 164.203759,24.7489192 C164.103203,24.8530973 163.955682,24.9054534 163.761752,24.9054534 C163.567268,24.9054534 163.420853,24.8530973 163.321954,24.7489192 C163.223055,24.6447411 163.173329,24.5138507 163.173329,24.3573164 L163.173329,24.3573164 Z" id="Fill-52" fill="#FFFFFF" mask="url(#mask-6)"></path>
                    <path d="M169.234089,26.5435603 C168.844623,26.5435603 168.517664,26.6856699 168.253212,26.9688205 C167.98876,27.2525055 167.825281,27.6494507 167.762774,28.1607247 L170.590541,28.1607247 L170.590541,28.0880671 C170.56276,27.5976288 170.430801,27.2177795 170.19413,26.9479849 C169.957459,26.6787247 169.637445,26.5435603 169.234089,26.5435603 M169.354295,31.6044781 C168.588719,31.6044781 167.966322,31.3533822 167.486568,30.8506562 C167.006281,30.3479301 166.766404,29.6758479 166.766404,28.8338753 L166.766404,28.6565055 C166.766404,28.0966151 166.873253,27.5970945 167.086952,27.1563411 C167.301185,26.7166562 167.600363,26.3726014 167.984486,26.1236425 C168.36861,25.8752178 168.785322,25.7507384 169.234089,25.7507384 C169.968144,25.7507384 170.538185,25.9927521 170.945281,26.475711 C171.352377,26.9592041 171.555925,27.6515877 171.555925,28.5523274 L171.555925,28.9540808 L167.731253,28.9540808 C167.745144,29.5107658 167.908089,29.9606014 168.219555,30.3025192 C168.530486,30.6455055 168.926363,30.8164644 169.406116,30.8164644 C169.746966,30.8164644 170.035459,30.7470123 170.27213,30.607574 C170.508801,30.4692041 170.715555,30.2843548 170.892925,30.0546288 L171.482733,30.5140808 C171.009925,31.2411904 170.300445,31.6044781 169.354295,31.6044781" id="Fill-53" fill="#FFFFFF" mask="url(#mask-6)"></path>
                    <path d="M174.835344,25.854863 L174.866864,26.5643425 C175.298001,26.0215479 175.861097,25.7506849 176.557221,25.7506849 C177.750193,25.7506849 178.351755,26.4233014 178.36244,27.7696027 L178.36244,31.4997123 L177.397056,31.4997123 L177.397056,27.7642603 C177.393851,27.3576986 177.300358,27.0569178 177.117645,26.8619178 C176.935467,26.6674521 176.650714,26.5696849 176.264988,26.5696849 C175.951919,26.5696849 175.677316,26.6530274 175.440645,26.8202466 C175.203974,26.9869315 175.019659,27.2059726 174.8877,27.4773699 L174.8877,31.4997123 L173.922316,31.4997123 L173.922316,25.854863 L174.835344,25.854863 Z" id="Fill-54" fill="#FFFFFF" mask="url(#mask-6)"></path>
                    <path d="M181.798286,28.7400082 C181.798286,29.3800356 181.930779,29.8811589 182.194697,30.2428438 C182.459149,30.6045288 182.82404,30.7851041 183.290437,30.7851041 C183.902684,30.7851041 184.349314,30.5105014 184.631396,29.9607616 L184.631396,27.368063 C184.342368,26.8359534 183.898944,26.5698986 183.301122,26.5698986 C182.827779,26.5698986 182.459149,26.7520767 182.194697,27.1175014 C181.930779,27.4823918 181.798286,28.0235836 181.798286,28.7400082 L181.798286,28.7400082 Z M180.832903,28.6304877 C180.832903,27.764474 181.038588,27.0678164 181.448889,26.5410493 C181.85919,26.0137479 182.396642,25.7503644 183.060711,25.7503644 C183.721574,25.7503644 184.245136,25.9768849 184.631396,26.4288575 L184.631396,23.4862274 L185.596245,23.4862274 L185.596245,31.499926 L184.709396,31.499926 L184.662382,30.8946247 C184.276656,31.3679671 183.739204,31.6041041 183.05056,31.6041041 C182.396642,31.6041041 181.863464,31.3364466 181.45156,30.8005973 C181.039122,30.2652822 180.832903,29.5664877 180.832903,28.7036795 L180.832903,28.6304877 Z" id="Fill-55" fill="#FFFFFF" mask="url(#mask-6)"></path>
                    <path d="M190.227522,30.7643219 C190.529905,30.7643219 190.81733,30.6863219 191.088193,30.5297877 C191.35959,30.3732534 191.556193,30.1697055 191.678001,29.9191438 L191.678001,28.7608973 L190.921508,28.7608973 C189.738686,28.7608973 189.14781,29.107089 189.14781,29.7989384 C189.14781,30.1018562 189.248248,30.3385274 189.450193,30.5084178 C189.651604,30.6793767 189.911248,30.7643219 190.227522,30.7643219 L190.227522,30.7643219 Z M191.829193,31.4999795 C191.773632,31.3888562 191.728221,31.1906507 191.693495,30.905363 C191.244727,31.3717603 190.709412,31.6041575 190.086481,31.6041575 C189.53033,31.6041575 189.073549,31.447089 188.717207,31.1318836 C188.36033,30.8177466 188.182426,30.4186644 188.182426,29.934637 C188.182426,29.3475 188.405741,28.8907192 188.852905,28.565363 C189.299536,28.2400068 189.928344,28.0775959 190.738796,28.0775959 L191.678001,28.0775959 L191.678001,27.6341712 C191.678001,27.2970616 191.577029,27.0283356 191.375084,26.8279932 C191.173673,26.6281849 190.876097,26.5277466 190.483426,26.5277466 C190.138837,26.5277466 189.84981,26.6148288 189.616878,26.7889932 C189.383947,26.9631575 189.267481,27.1731164 189.267481,27.4199384 L188.297289,27.4199384 C188.297289,27.1383904 188.397193,26.8664589 188.597001,26.6036096 C188.797344,26.3412945 189.068741,26.1334726 189.411193,25.9801438 C189.753645,25.8273493 190.130289,25.7504178 190.54059,25.7504178 C191.190768,25.7504178 191.70044,25.913363 192.06907,26.2381849 C192.4377,26.5640753 192.629495,27.011774 192.642851,27.5818151 L192.642851,30.1798562 C192.642851,30.6986096 192.709097,31.1105137 192.84159,31.416637 L192.84159,31.4999795 L191.829193,31.4999795 Z" id="Fill-56" fill="#FFFFFF" mask="url(#mask-6)"></path>
                    <path d="M201.14827,30.0860425 L202.463051,25.8548096 L203.496284,25.8548096 L201.22627,32.3710151 C200.87527,33.3102205 200.316982,33.7798233 199.551941,33.7798233 L199.369229,33.7643301 L199.009147,33.6964808 L199.009147,32.9138096 L199.269859,32.9346452 C199.596818,32.9346452 199.851653,32.8689329 200.034366,32.7364397 C200.217078,32.6044808 200.367736,32.3630014 200.485804,32.0114671 L200.699503,31.4371521 L198.685927,25.8548096 L199.739462,25.8548096 L201.14827,30.0860425 Z" id="Fill-57" fill="#FFFFFF" mask="url(#mask-6)"></path>
                    <polygon id="Fill-58" fill="#FFFFFF" mask="url(#mask-6)" points="213.843144 28.1452315 210.655295 28.1452315 210.655295 31.4997658 209.653582 31.4997658 209.653582 23.9038479 214.35976 23.9038479 214.35976 24.7228479 210.655295 24.7228479 210.655295 27.3262315 213.843144 27.3262315"></polygon>
                    <path d="M216.744403,31.5001932 L217.743255,31.5001932 L217.743255,25.8553438 L216.744403,25.8553438 L216.744403,31.5001932 Z M216.663699,24.3573164 C216.663699,24.2007822 216.712895,24.0688233 216.81184,23.9609055 C216.911339,23.8535219 217.057822,23.7990288 217.251844,23.7990288 C217.446418,23.7990288 217.594007,23.8535219 217.694611,23.9609055 C217.795215,24.0688233 217.845517,24.2007822 217.845517,24.3573164 C217.845517,24.5138507 217.795215,24.6447411 217.694611,24.7489192 C217.594007,24.8530973 217.446418,24.9054534 217.251844,24.9054534 C217.057822,24.9054534 216.911339,24.8530973 216.81184,24.7489192 C216.712895,24.6447411 216.663699,24.5138507 216.663699,24.3573164 L216.663699,24.3573164 Z" id="Fill-59" fill="#FFFFFF" mask="url(#mask-6)"></path>
                    <path d="M221.4147,25.854863 L221.446221,26.5643425 C221.877358,26.0215479 222.440453,25.7506849 223.136577,25.7506849 C224.329549,25.7506849 224.931111,26.4233014 224.941796,27.7696027 L224.941796,31.4997123 L223.976412,31.4997123 L223.976412,27.7642603 C223.973207,27.3576986 223.879714,27.0569178 223.697001,26.8619178 C223.514823,26.6674521 223.23007,26.5696849 222.844344,26.5696849 C222.531275,26.5696849 222.256673,26.6530274 222.020001,26.8202466 C221.78333,26.9869315 221.599015,27.2059726 221.467056,27.4773699 L221.467056,31.4997123 L220.501673,31.4997123 L220.501673,25.854863 L221.4147,25.854863 Z" id="Fill-60" fill="#FFFFFF" mask="url(#mask-6)"></path>
                    <path d="M229.530653,30.7643219 C229.833037,30.7643219 230.120462,30.6863219 230.391325,30.5297877 C230.662722,30.3732534 230.859325,30.1697055 230.981133,29.9191438 L230.981133,28.7608973 L230.22464,28.7608973 C229.041818,28.7608973 228.450941,29.107089 228.450941,29.7989384 C228.450941,30.1018562 228.551379,30.3385274 228.753325,30.5084178 C228.954736,30.6793767 229.214379,30.7643219 229.530653,30.7643219 L229.530653,30.7643219 Z M231.132325,31.4999795 C231.076763,31.3888562 231.031352,31.1906507 230.996626,30.905363 C230.547859,31.3717603 230.012544,31.6041575 229.389612,31.6041575 C228.833462,31.6041575 228.376681,31.447089 228.020338,31.1318836 C227.663462,30.8177466 227.485558,30.4186644 227.485558,29.934637 C227.485558,29.3475 227.708873,28.8907192 228.156037,28.565363 C228.602667,28.2400068 229.231475,28.0775959 230.041927,28.0775959 L230.981133,28.0775959 L230.981133,27.6341712 C230.981133,27.2970616 230.88016,27.0283356 230.678215,26.8279932 C230.476804,26.6281849 230.179229,26.5277466 229.786558,26.5277466 C229.441968,26.5277466 229.152941,26.6148288 228.92001,26.7889932 C228.687078,26.9631575 228.570612,27.1731164 228.570612,27.4199384 L227.600421,27.4199384 C227.600421,27.1383904 227.700325,26.8664589 227.900133,26.6036096 C228.100475,26.3412945 228.371873,26.1334726 228.714325,25.9801438 C229.056777,25.8273493 229.433421,25.7504178 229.843722,25.7504178 C230.4939,25.7504178 231.003571,25.913363 231.372201,26.2381849 C231.740832,26.5640753 231.932626,27.011774 231.945982,27.5818151 L231.945982,30.1798562 C231.945982,30.6986096 232.012229,31.1105137 232.144722,31.416637 L232.144722,31.4999795 L231.132325,31.4999795 Z" id="Fill-61" fill="#FFFFFF" mask="url(#mask-6)"></path>
                    <path d="M235.622293,25.854863 L235.653814,26.5643425 C236.084951,26.0215479 236.648047,25.7506849 237.34417,25.7506849 C238.537142,25.7506849 239.138704,26.4233014 239.149389,27.7696027 L239.149389,31.4997123 L238.184005,31.4997123 L238.184005,27.7642603 C238.1808,27.3576986 238.087307,27.0569178 237.904595,26.8619178 C237.722416,26.6674521 237.437663,26.5696849 237.051937,26.5696849 C236.738868,26.5696849 236.464266,26.6530274 236.227595,26.8202466 C235.990923,26.9869315 235.806608,27.2059726 235.674649,27.4773699 L235.674649,31.4997123 L234.709266,31.4997123 L234.709266,25.854863 L235.622293,25.854863 Z" id="Fill-62" fill="#FFFFFF" mask="url(#mask-6)"></path>
                    <polygon id="Fill-63" fill="#FFFFFF" mask="url(#mask-6)" points="242.762873 30.712126 246.065585 30.712126 246.065585 31.5001397 241.58379 31.5001397 241.58379 30.790126 244.698448 26.6529205 241.630804 26.6529205 241.630804 25.8547562 245.909051 25.8547562 245.909051 26.5385918"></polygon>
                    <path d="M250.284103,30.7643219 C250.586486,30.7643219 250.873911,30.6863219 251.144774,30.5297877 C251.416171,30.3732534 251.612774,30.1697055 251.734582,29.9191438 L251.734582,28.7608973 L250.978089,28.7608973 C249.795267,28.7608973 249.20439,29.107089 249.20439,29.7989384 C249.20439,30.1018562 249.304829,30.3385274 249.506774,30.5084178 C249.708185,30.6793767 249.967829,30.7643219 250.284103,30.7643219 L250.284103,30.7643219 Z M251.885774,31.4999795 C251.830212,31.3888562 251.784801,31.1906507 251.750075,30.905363 C251.301308,31.3717603 250.765993,31.6041575 250.143062,31.6041575 C249.586911,31.6041575 249.13013,31.447089 248.773788,31.1318836 C248.416911,30.8177466 248.239007,30.4186644 248.239007,29.934637 C248.239007,29.3475 248.462322,28.8907192 248.909486,28.565363 C249.356116,28.2400068 249.984925,28.0775959 250.795377,28.0775959 L251.734582,28.0775959 L251.734582,27.6341712 C251.734582,27.2970616 251.63361,27.0283356 251.431664,26.8279932 C251.230253,26.6281849 250.932678,26.5277466 250.540007,26.5277466 C250.195418,26.5277466 249.90639,26.6148288 249.673459,26.7889932 C249.440527,26.9631575 249.324062,27.1731164 249.324062,27.4199384 L248.35387,27.4199384 C248.35387,27.1383904 248.453774,26.8664589 248.653582,26.6036096 C248.853925,26.3412945 249.125322,26.1334726 249.467774,25.9801438 C249.810226,25.8273493 250.18687,25.7504178 250.597171,25.7504178 C251.247349,25.7504178 251.757021,25.913363 252.125651,26.2381849 C252.494281,26.5640753 252.686075,27.011774 252.699432,27.5818151 L252.699432,30.1798562 C252.699432,30.6986096 252.765678,31.1105137 252.898171,31.416637 L252.898171,31.4999795 L251.885774,31.4999795 Z" id="Fill-64" fill="#FFFFFF" mask="url(#mask-6)"></path>
                    <path d="M258.749614,30.0025932 C258.749614,29.7418808 258.651312,29.5394014 258.45471,29.3946205 C258.258641,29.2509082 257.915655,29.1258945 257.426819,29.0217164 C256.938518,28.9175384 256.550655,28.7919904 256.263764,28.6461411 C255.976874,28.4997575 255.764778,28.3261274 255.626942,28.1241822 C255.489641,27.9227712 255.421258,27.6828945 255.421258,27.4045521 C255.421258,26.9418945 255.616792,26.550826 256.00786,26.2302781 C256.399463,25.9107986 256.899518,25.7505247 257.508025,25.7505247 C258.148052,25.7505247 258.666805,25.9161411 259.065353,26.2463055 C259.463367,26.5770041 259.662641,26.9995932 259.662641,27.5140726 L258.692449,27.5140726 C258.692449,27.2501548 258.580258,27.0220315 258.355874,26.8307712 C258.13149,26.639511 257.848874,26.5433466 257.508025,26.5433466 C257.15649,26.5433466 256.881888,26.6202781 256.683682,26.7730726 C256.485477,26.9264014 256.386107,27.1262096 256.386107,27.3730315 C256.386107,27.6064973 256.478532,27.7822644 256.662847,27.8997986 C256.847162,28.0184014 257.179997,28.1316616 257.661888,28.2390452 C258.143778,28.346963 258.533778,28.4762507 258.832956,28.6253055 C259.132134,28.7748945 259.353847,28.9549356 259.498093,29.1654288 C259.64234,29.3759219 259.714997,29.6323603 259.714997,29.9347438 C259.714997,30.4390726 259.513052,30.8434973 259.109696,31.1480178 C258.705805,31.4525384 258.182778,31.6042644 257.539011,31.6042644 C257.087038,31.6042644 256.686888,31.5246616 256.339093,31.3643877 C255.991299,31.2046479 255.719367,30.9807986 255.522764,30.6939082 C255.326162,30.4070178 255.22786,30.0966205 255.22786,29.7627164 L256.193244,29.7627164 C256.210874,30.0859356 256.340162,30.3429082 256.581641,30.5320315 C256.823655,30.7222233 257.1426,30.8162507 257.539011,30.8162507 C257.904436,30.8162507 258.197203,30.7430589 258.418381,30.5945384 C258.639025,30.4470863 258.749614,30.2499493 258.749614,30.0025932" id="Fill-65" fill="#FFFFFF" mask="url(#mask-6)"></path>
                </g>
            </g>
        </g>
    </g>
</svg>